<?xml version="1.0" encoding="UTF-8"?>
<svg width="100px" height="100px" viewBox="0 0 100 100" version="1.1" xmlns="http://www.w3.org/2000/svg" xmlns:xlink="http://www.w3.org/1999/xlink">
    <!-- Generator: Sketch 52.2 (67145) - http://www.bohemiancoding.com/sketch -->
    <title>cardicon-finance-b</title>
    <desc>Created with Sketch.</desc>
    <g id="Page-1" stroke="none" stroke-width="1" fill="none" fill-rule="evenodd" opacity="0.08">
        <g id="cardicon-finance-b">
            <rect id="Rectangle" fill="#FFFFFF" x="0" y="0" width="64.2857143" height="21.4285714"></rect>
            <path d="M7.14285714,7.14285714 L7.14285714,14.2857143 L57.1428571,14.2857143 L57.1428571,7.14285714 L7.14285714,7.14285714 Z M0,0 L64.2857143,0 L64.2857143,21.4285714 L0,21.4285714 L0,0 Z" id="Rectangle" fill="#6D7A80" fill-rule="nonzero"></path>
            <rect id="Rectangle-Copy-19" fill="#9FA8AC" x="0" y="14.2857143" width="57.1428571" height="21.4285714"></rect>
            <path d="M7.14285714,21.4285714 L7.14285714,28.5714286 L50,28.5714286 L50,21.4285714 L7.14285714,21.4285714 Z M0,14.2857143 L57.1428571,14.2857143 L57.1428571,35.7142857 L0,35.7142857 L0,14.2857143 Z" id="Rectangle-Copy-19" fill="#6D7A80" fill-rule="nonzero"></path>
            <rect id="Rectangle-Copy-20" fill="#FFFFFF" x="0" y="28.5714286" width="78.5714286" height="21.4285714"></rect>
            <path d="M7.14285714,35.7142857 L7.14285714,42.8571429 L71.4285714,42.8571429 L71.4285714,35.7142857 L7.14285714,35.7142857 Z M0,28.5714286 L78.5714286,28.5714286 L78.5714286,50 L0,50 L0,28.5714286 Z" id="Rectangle-Copy-20" fill="#6D7A80" fill-rule="nonzero"></path>
            <rect id="Rectangle-Copy-21" fill="#9FA8AC" x="0" y="42.8571429" width="100" height="21.4285714"></rect>
            <path d="M7.14285714,50 L7.14285714,57.1428571 L92.8571429,57.1428571 L92.8571429,50 L7.14285714,50 Z M0,42.8571429 L100,42.8571429 L100,64.2857143 L0,64.2857143 L0,42.8571429 Z" id="Rectangle-Copy-21" fill="#6D7A80" fill-rule="nonzero"></path>
            <rect id="Rectangle-Copy-22" fill="#FFFFFF" x="21.4285714" y="57.1428571" width="64.2857143" height="21.4285714"></rect>
            <path d="M28.5714286,64.2857143 L28.5714286,71.4285714 L78.5714286,71.4285714 L78.5714286,64.2857143 L28.5714286,64.2857143 Z M21.4285714,57.1428571 L85.7142857,57.1428571 L85.7142857,78.5714286 L21.4285714,78.5714286 L21.4285714,57.1428571 Z" id="Rectangle-Copy-22" fill="#6D7A80" fill-rule="nonzero"></path>
            <rect id="Rectangle-Copy-23" fill="#FFFFFF" x="21.4285714" y="71.4285714" width="57.1428571" height="21.4285714"></rect>
            <path d="M28.5714286,78.5714286 L28.5714286,85.7142857 L71.4285714,85.7142857 L71.4285714,78.5714286 L28.5714286,78.5714286 Z M21.4285714,71.4285714 L78.5714286,71.4285714 L78.5714286,92.8571429 L21.4285714,92.8571429 L21.4285714,71.4285714 Z" id="Rectangle-Copy-23" fill="#6D7A80" fill-rule="nonzero"></path>
            <circle id="Oval" fill="#FFFFFF" cx="35.7142857" cy="64.2857143" r="35.7142857"></circle>
            <path d="M35.7142857,92.8571429 C51.49385,92.8571429 64.2857143,80.0652786 64.2857143,64.2857143 C64.2857143,48.50615 51.49385,35.7142857 35.7142857,35.7142857 C19.9347214,35.7142857 7.14285714,48.50615 7.14285714,64.2857143 C7.14285714,80.0652786 19.9347214,92.8571429 35.7142857,92.8571429 Z M35.7142857,100 C15.9898304,100 0,84.0101696 0,64.2857143 C0,44.5612589 15.9898304,28.5714286 35.7142857,28.5714286 C55.4387411,28.5714286 71.4285714,44.5612589 71.4285714,64.2857143 C71.4285714,84.0101696 55.4387411,100 35.7142857,100 Z" id="Oval" fill="#6D7A80" fill-rule="nonzero"></path>
            <path d="M35.8017148,47.4746186 L39.3731434,43.9031901 C40.767873,42.5084605 43.0291765,42.5084605 44.4239061,43.9031901 C45.8186357,45.2979197 45.8186357,47.5592232 44.4239061,48.9539528 L43.1397811,50.2380778 L46.4285714,50.2380778 C48.401017,50.2380778 50,51.8370608 50,53.8095064 C50,55.7819519 48.401017,57.3809349 46.4285714,57.3809349 L39.3172855,57.3809349 L39.3172855,64.5237921 L46.4285714,64.5237921 C48.401017,64.5237921 50,66.1227751 50,68.0952206 C50,70.0676662 48.401017,71.6666492 46.4285714,71.6666492 L39.3172855,71.6666492 L39.3172855,83.1665261 C39.3172855,85.1389717 37.7183024,86.7379547 35.7458569,86.7379547 C33.7734114,86.7379547 32.1744283,85.1389717 32.1744283,83.1665261 L32.1744283,71.6666492 L25,71.6666492 C23.0275545,71.6666492 21.4285714,70.0676662 21.4285714,68.0952206 C21.4285714,66.1227751 23.0275545,64.5237921 25,64.5237921 L32.1744283,64.5237921 L32.1744283,57.3809349 L25,57.3809349 C23.0275545,57.3809349 21.4285714,55.7819519 21.4285714,53.8095064 C21.4285714,51.8370608 23.0275545,50.2380778 25,50.2380778 L28.4636485,50.2380778 L27.1795235,48.9539528 C25.7847939,47.5592232 25.7847939,45.2979197 27.1795235,43.9031901 C28.5742531,42.5084605 30.8355566,42.5084605 32.2302862,43.9031901 L35.8017148,47.4746186 Z" id="Rectangle-5" fill="#6D7A80"></path>
        </g>
    </g>
</svg>