<?xml version="1.0" encoding="UTF-8"?>
<svg width="100px" height="100px" viewBox="0 0 100 100" version="1.1" xmlns="http://www.w3.org/2000/svg" xmlns:xlink="http://www.w3.org/1999/xlink">
    <!-- Generator: Sketch 52.2 (67145) - http://www.bohemiancoding.com/sketch -->
    <title>delivery-b</title>
    <desc>Created with Sketch.</desc>
    <g id="工作台" stroke="none" stroke-width="1" fill="none" fill-rule="evenodd" opacity="0.08">
        <g id="delivery-b">
            <rect id="Rectangle" fill="#D8D8D8" opacity="0.01" x="0" y="0" width="100" height="100"></rect>
            <g id="Group-42" transform="translate(0.000000, 7.142857)">
                <rect id="Rectangle" fill="#FFFFFF" x="0" y="0" width="64.2857143" height="71.4285714"></rect>
                <path d="M7.14285714,7.14285714 L7.14285714,64.2857143 L57.1428571,64.2857143 L57.1428571,7.14285714 L7.14285714,7.14285714 Z M0,0 L64.2857143,0 L64.2857143,71.4285714 L0,71.4285714 L0,0 Z" id="Rectangle" fill="#6D7A80" fill-rule="nonzero"></path>
                <rect id="Rectangle" fill="#6D7A80" x="14.2857143" y="21.4285714" width="28.5714286" height="7.14285714"></rect>
                <polygon id="Path-32" fill="#9FA8AC" points="61.2186225 25.8394423 61.2186225 39.9999336 95.665015 41.2134458 95.665015 31.2417411 76.4085612 25.8394423"></polygon>
                <polygon id="Path-33" fill="#FFFFFF" points="60.9941395 40.3863473 60.9941395 59.3750635 96.158624 59.3750635 96.158624 41.2418315"></polygon>
                <path d="M64.2857143,28.5714286 L64.2857143,57.1428571 L92.8571429,57.1428571 L92.8571429,34.8407575 L77.1417805,28.5714286 L64.2857143,28.5714286 Z M57.1428571,21.4285714 L78.5139515,21.4285714 L100,30 L100,64.2857143 L57.1428571,64.2857143 L57.1428571,21.4285714 Z" id="Rectangle" fill="#6D7A80" fill-rule="nonzero"></path>
                <polygon id="Path-31" fill="#6D7A80" fill-rule="nonzero" points="60.756022 44.1166356 60.756022 36.9737785 96.6238148 36.9737785 96.6238148 44.1166356"></polygon>
                <polygon id="Rectangle" fill="#9FA8AC" points="14.2857143 57.1428571 42.8571429 57.1428571 42.8571429 78.5714286 35.5951281 85.7142857 21.5166552 85.7142857 14.2857143 78.5714286"></polygon>
                <path d="M21.4285714,64.2857143 L21.4285714,75.5870869 L24.4497152,78.5714286 L32.6710118,78.5714286 L35.7142857,75.5780897 L35.7142857,64.2857143 L21.4285714,64.2857143 Z M14.2857143,57.1428571 L42.8571429,57.1428571 L42.8571429,78.5714286 L35.5951281,85.7142857 L21.5166552,85.7142857 L14.2857143,78.5714286 L14.2857143,57.1428571 Z" id="Rectangle" fill="#6D7A80" fill-rule="nonzero"></path>
                <polygon id="Rectangle" fill="#9FA8AC" points="57.1428571 57.1428571 85.7142857 57.1428571 85.7142857 78.5714286 78.4487854 85.7142857 64.1717904 85.7142857 57.1428571 78.5714286"></polygon>
                <path d="M64.2857143,64.2857143 L64.2857143,75.6463396 L67.16415,78.5714286 L75.5256693,78.5714286 L78.5714286,75.5770824 L78.5714286,64.2857143 L64.2857143,64.2857143 Z M57.1428571,57.1428571 L85.7142857,57.1428571 L85.7142857,78.5714286 L78.4487854,85.7142857 L64.1717904,85.7142857 L57.1428571,78.5714286 L57.1428571,57.1428571 Z" id="Rectangle" fill="#6D7A80" fill-rule="nonzero"></path>
            </g>
        </g>
    </g>
</svg>