<?xml version="1.0" encoding="UTF-8"?>
<svg width="282px" height="239px" viewBox="0 0 282 239" version="1.1" xmlns="http://www.w3.org/2000/svg" xmlns:xlink="http://www.w3.org/1999/xlink">
    <!-- Generator: Sketch 52.2 (67145) - http://www.bohemiancoding.com/sketch -->
    <title>无图表信息</title>
    <desc>Created with Sketch.</desc>
    <defs>
        <linearGradient x1="50%" y1="93.2832159%" x2="60.6740759%" y2="12.9475263%" id="linearGradient-1">
            <stop stop-color="#F6FAFF" offset="0%"></stop>
            <stop stop-color="#FFFFFF" offset="100%"></stop>
        </linearGradient>
        <linearGradient x1="41.9227826%" y1="0%" x2="77.4000687%" y2="91.9040229%" id="linearGradient-2">
            <stop stop-color="#F7FAFF" offset="0%"></stop>
            <stop stop-color="#DEEBFF" offset="100%"></stop>
        </linearGradient>
        <linearGradient x1="53.0916644%" y1="-15.1498472%" x2="53.0916644%" y2="90.6763407%" id="linearGradient-3">
            <stop stop-color="#DCE9FF" offset="0%"></stop>
            <stop stop-color="#F6F9FF" offset="100%"></stop>
        </linearGradient>
        <linearGradient x1="50%" y1="100%" x2="50%" y2="0%" id="linearGradient-4">
            <stop stop-color="#EDF4FF" offset="0%"></stop>
            <stop stop-color="#FAFCFF" offset="100%"></stop>
        </linearGradient>
        <linearGradient x1="50%" y1="100%" x2="50%" y2="0%" id="linearGradient-5">
            <stop stop-color="#DBE9FF" offset="0%"></stop>
            <stop stop-color="#FAFCFF" offset="100%"></stop>
        </linearGradient>
        <linearGradient x1="50%" y1="-12.4137371%" x2="50%" y2="100%" id="linearGradient-6">
            <stop stop-color="#DBE9FF" offset="0%"></stop>
            <stop stop-color="#F2F7FF" offset="100%"></stop>
        </linearGradient>
        <linearGradient x1="70.4501316%" y1="13.5153525%" x2="29.4374318%" y2="97.2218384%" id="linearGradient-7">
            <stop stop-color="#E8F0FF" offset="0%"></stop>
            <stop stop-color="#E8F1FF" offset="100%"></stop>
        </linearGradient>
        <linearGradient x1="78.6288077%" y1="75.039674%" x2="21.3901549%" y2="56.0632956%" id="linearGradient-8">
            <stop stop-color="#EEF6FF" offset="0%"></stop>
            <stop stop-color="#DEEAF8" offset="100%"></stop>
        </linearGradient>
    </defs>
    <g id="Page-1" stroke="none" stroke-width="1" fill="none" fill-rule="evenodd">
        <g id="无图表信息">
            <g id="分组" transform="translate(0.000000, 75.000000)">
                <path d="M54.6191024,32.1560239 C-0.116016744,32.1560239 -45.9239098,125.085999 84.5134686,101.089133 C104.836036,115.483351 123.537905,122.80161 163.428294,117.914557 C175.876986,125.664027 274.229893,142.685549 260.392178,80.0819939 C309.834801,67.9495777 273.846857,-2.33979155 158.393215,29.9168092 C126.44466,7.62835846 66.5992957,-16.0943807 54.6191024,32.1560239 Z" id="路径-copy" fill="#E7EEFB"></path>
                <path d="M54.6191024,28.1560239 C-0.116016744,28.1560239 -45.9239098,121.085999 84.5134686,97.0891334 C104.836036,111.483351 123.537905,118.80161 163.428294,113.914557 C175.876986,121.664027 274.229893,138.685549 260.392178,76.0819939 C309.834801,63.9495777 273.846857,-6.33979155 158.393215,25.9168092 C126.44466,3.62835846 66.5992957,-20.0943807 54.6191024,28.1560239 Z" id="路径" fill="url(#linearGradient-1)"></path>
                <path d="M225,81 C228.550746,81 231.621233,83.0742709 233.085655,86.087132 C237.050531,87.0361596 240,90.631142 240,94.9210526 C240,99.9352168 235.970563,104 231,104 C228.694937,104 226.592269,103.125838 225,101.688217 C223.407731,103.125838 221.305063,104 219,104 C214.029437,104 210,99.9352168 210,94.9210526 C210,90.631142 212.949469,87.0361596 216.914345,86.087132 C218.378767,83.0742709 221.449254,81 225,81 Z" id="路径" fill="url(#linearGradient-2)"></path>
                <path d="M62.1987449,69.7019866 L68,65 C66.1955213,69.2007667 64.5796439,71.9435922 63.1523677,73.2284765 C63.1523677,76.0031565 63.1523677,77.9269977 63.1523677,79 L61.2509036,79 L61.2509036,73.2284765 C59.8434159,70.3031004 58.426448,68.3013443 57,67.2232081 C58.197299,67.364821 59.930214,68.1910804 62.1987449,69.7019866 Z" id="路径-13-copy" fill="#DBE8FF"></path>
                <path d="M62,51 C65.550746,51 68.6212328,53.0742709 70.0856553,56.087132 C74.0505314,57.0361596 77,60.631142 77,64.9210526 C77,69.9352168 72.9705627,74 68,74 C65.6949367,74 63.5922695,73.1258379 62,71.6882171 C60.4077305,73.1258379 58.3050633,74 56,74 C51.0294373,74 47,69.9352168 47,64.9210526 C47,60.631142 49.9494686,57.0361596 53.9143447,56.087132 C55.3787672,53.0742709 58.449254,51 62,51 Z" id="路径-copy-2" fill="url(#linearGradient-2)"></path>
                <path d="M225.198745,99.7019866 L231,95 C229.195521,99.2007667 227.579644,101.943592 226.152368,103.228477 C226.152368,106.003157 226.152368,107.926998 226.152368,109 L224.250904,109 L224.250904,103.228477 C222.843416,100.3031 221.426448,98.3013443 220,97.2232081 C221.197299,97.364821 222.930214,98.1910804 225.198745,99.7019866 Z" id="路径-13" fill="#DBE8FF"></path>
            </g>
            <g id="分组-2" transform="translate(89.000000, 0.000000)">
                <g id="矩形" transform="translate(0.000000, 9.000000)">
                    <g id="path-4-link" fill="#000000">
                        <rect id="path-4" x="0" y="0" width="96" height="120" rx="5"></rect>
                    </g>
                    <g id="path-4-link" fill="url(#linearGradient-3)">
                        <rect id="path-4" x="0" y="0" width="96" height="120" rx="5"></rect>
                    </g>
                </g>
                <rect id="矩形" fill="url(#linearGradient-4)" x="6" y="16" width="84" height="94"></rect>
                <path d="M28,14 L68,14 L68,18 C68,19.1045695 67.1045695,20 66,20 L30,20 C28.8954305,20 28,19.1045695 28,18 L28,14 Z" id="矩形-copy" fill="url(#linearGradient-5)"></path>
                <path d="M43.1000181,4 C43.5632884,1.71775968 45.5810421,-4.4408921e-15 48,-4.4408921e-15 C50.4189579,-4.4408921e-15 52.4367116,1.71775968 52.8999819,4 L63,4 C65.7614237,4 68,6.23857625 68,9 L68,14 L28,14 L28,9 C28,6.23857625 30.2385763,4 33,4 L43.1000181,4 Z" id="合并形状" fill="url(#linearGradient-6)"></path>
                <circle id="椭圆形-copy" fill="#D5E5FF" cx="48" cy="5" r="3"></circle>
                <polyline id="路径-27" stroke="url(#linearGradient-7)" stroke-width="2" points="15 81 29.5 54 47.5 76 66 61.6743295 79.5 70"></polyline>
            </g>
            <g id="暂无工作报表" transform="translate(96.000000, 220.000000)" fill="#A5BDE8" font-family="PingFangSC-Regular, PingFang SC" font-size="16" font-weight="normal">
                <text>
                    <tspan x="0" y="17">暂无工作报表</tspan>
                </text>
            </g>
            <g id="分组" transform="translate(190.000000, 138.500000) scale(-1, 1) translate(-190.000000, -138.500000) translate(179.000000, 99.000000)">
                <polygon id="路径-14" fill="#FFF3D1" points="6.96062738 12.1456999 7.78622105 13.7195644 7.78622105 14.9525108 9.85153914 15 11.7532982 12.1456999 13 11.5 13 11 12.5 10.0910603 13 8.51502914 13 7.01789365 11.7532982 7.01789365 11.7532982 6.12050826 11.0192319 5.09496632 9.85153914 4 6 8.51502914"></polygon>
                <rect id="矩形" fill="#FFE391" x="3" y="72" width="2" height="4"></rect>
                <rect id="矩形-copy" fill="#FFF3D1" x="11" y="72" width="2" height="4"></rect>
                <path d="M8.40629795,6.77478029 L9.50662555,6.77478029 L9.50662555,5.10658467 L11,4.89430691 L12,4.09973383 L12,3.0023058 L9.99426614,0 L8.80693212,0 L8.80693212,1.38714378 L7.79873689,1.84278645 L6.51360498,2.33544762 C1.69196592,6.08096071 1.8327949,8.96914484 6.93609193,11 C8.44600165,10.9443473 9.06961505,10.3933173 8.80693212,9.34691006 L7.5,7.96659239 L7.79873689,6.77478029 L8.40629795,6.77478029 Z" id="路径-15" fill="#979797"></path>
                <path d="M2,42.0538772 L2,51.7102434 L3.1731789,54.9290321 C3.25261256,58.1107948 3.05708274,60.2086876 2.58658945,61.2227104 C2.61462125,62.3074325 2.68345383,66.2331957 2.79308717,73 L7.38594312,73 C8.44646188,58.7594362 8.78817275,51.2180354 8.41107573,50.3757976 C9.04173242,50.3492937 9.34783093,50.3492937 9.32937128,50.3757976 L10.0019115,51.09562 L10.6935331,73 L14.6581656,73 L16,58.0924654 L16,41 L2,42.0538772 Z" id="路径-17" fill="#D7E5FA"></path>
                <path d="M6.14018668,13 L10.8702473,14.1924926 C17,30.812717 18.5324382,39.9688172 15.4675618,41.6607932 C9.84629474,43.1388444 3.65963286,43.0728918 0.797290748,42.9297751 C-1.20929032,35.5207419 0.571674991,25.5441502 6.14018668,13 Z" id="路径-16" fill="url(#linearGradient-8)"></path>
                <polygon id="路径-18" fill="#C2CFE2" points="2 74.6392331 3.94525947 74.6392331 5.85171207 74 5.85171207 75.25 9.73194719 74.6392331 9.81820817 75.25 11.0614062 75.25 12.4999772 74 13.7220058 74 13.7220058 75.25 17.6817303 75.25 19 75.9054769 19 77.125854 14.3936235 78.361664 11.8677484 78.361664 11.1471694 79 9.81820817 79 9.81820817 76.5 8.57349718 76.5 4.61959367 79 2.64794552 79 2.64794552 78.361664 2 78.361664"></polygon>
                <path d="M8.91473559,16.8187736 L17.5,18 L15,12.5 C15.3333333,11.1666667 16,10.6608689 17,10.9826068 C18.6666667,11.3275356 20.3333333,14.1666667 22,19.5 C21.6666667,22.1666667 17.4919383,23.3333333 9.47581485,23 C5.03664765,21.2701191 4.84962123,19.2097103 8.91473559,16.8187736 Z" id="路径-19" fill="#D0DEEE"></path>
                <polygon id="路径-4" fill="#FFF3D1" points="16.5 11 15 9.5 14 9.5 14 10 13 10 13 11.5 15.5 12"></polygon>
            </g>
        </g>
    </g>
</svg>