<?xml version="1.0" encoding="UTF-8"?>
<svg width="14px" height="14px" viewBox="0 0 14 14" version="1.1" xmlns="http://www.w3.org/2000/svg" xmlns:xlink="http://www.w3.org/1999/xlink">
    <!-- Generator: Sketch 52.2 (67145) - http://www.bohemiancoding.com/sketch -->
    <title>sales-order-s</title>
    <desc>Created with Sketch.</desc>
    <g id="工作台" stroke="none" stroke-width="1" fill="none" fill-rule="evenodd">
        <g id="sales-order-s">
            <rect id="Rectangle" fill="#FFFFFF" x="0" y="1" width="14" height="13"></rect>
            <path d="M1,2 L1,13 L13,13 L13,2 L1,2 Z M0,1 L14,1 L14,14 L0,14 L0,1 Z" id="Rectangle" fill="#1E3255" fill-rule="nonzero"></path>
            <path d="M7.61693042,6.12610365 L7.61693042,11.1261037 L4.61693042,11.1261037 L4.61693042,6.12610365 L4.61693042,3.12610365 L9.61693042,3.12610365 L9.61693042,6.12610365 L7.61693042,6.12610365 Z" id="Rectangle-6" fill="#29BECE" transform="translate(7.116930, 7.126104) rotate(-135.000000) translate(-7.116930, -7.126104) "></path>
            <path d="M8.61693042,4.12610365 L5.61693042,4.12610365 L5.61693042,10.1261037 L6.61693042,10.1261037 L6.61693042,5.12610365 L8.61693042,5.12610365 L8.61693042,4.12610365 Z M7.61693042,6.12610365 L7.61693042,11.1261037 L4.61693042,11.1261037 L4.61693042,3.12610365 L9.61693042,3.12610365 L9.61693042,6.12610365 L7.61693042,6.12610365 Z" id="Rectangle-6" fill="#1E3255" fill-rule="nonzero" transform="translate(7.116930, 7.126104) rotate(-135.000000) translate(-7.116930, -7.126104) "></path>
            <rect id="Rectangle" fill="#29BECE" x="3" y="0" width="8" height="3"></rect>
            <path d="M4,1 L4,2 L10,2 L10,1 L4,1 Z M3,0 L11,0 L11,3 L3,3 L3,0 Z" id="Rectangle" fill="#1E3255" fill-rule="nonzero"></path>
        </g>
    </g>
</svg>