<svg id="图层_1" data-name="图层 1" xmlns="http://www.w3.org/2000/svg" viewBox="0 0 105.95 113.87"><defs><style>.cls-1{fill:#999;}</style></defs><title>认证不成功icon</title><path class="cls-1" d="M-200.1,268.74a2,2,0,0,0-1.89-1.8,58.25,58.25,0,0,1-36.53-15.13,2,2,0,0,0-2.61,0,58.21,58.21,0,0,1-36.53,15.13,2,2,0,0,0-1.88,1.8q-.22,3.22-.23,6.57c0,34.17,17.88,61.87,39.95,61.87,6.7,0,13-2.57,18.55-7.08a19,19,0,0,1,13-16.77c5.29-10.5,8.45-23.69,8.45-38Q-199.87,272-200.1,268.74Zm-55.07,25.57h6v15h9v-26h6v11h16.07v6h-16.07v9h20v6h-52.06v-6h11.06v-9h-10.1V285.23h0l0,0,15.82-15.82,0,0v0h20L-213.84,285l-4.24,4.24-13.83-13.83H-247l-12.31,12.32v6.6Z" transform="translate(292.8 -237.31)"/><path class="cls-1" d="M-219.16,340.14a35.23,35.23,0,0,1-20.66,7c-27.2,0-49.26-34.15-49.26-76.29,0-2.73.11-5.43.29-8.09a2.42,2.42,0,0,1,2.32-2.22,71.77,71.77,0,0,0,45-18.65,2.39,2.39,0,0,1,3.22,0,71.77,71.77,0,0,0,45,18.65,2.42,2.42,0,0,1,2.32,2.22c.18,2.66.28,5.36.28,8.09a108,108,0,0,1-8.06,41.83s2.21.55,3.28,1a116.21,116.21,0,0,0,8.5-44.56c0-2.94-.1-5.85-.3-8.71a2.59,2.59,0,0,0-2.5-2.38A77.24,77.24,0,0,1-238.09,238a2.6,2.6,0,0,0-3.46,0A77.25,77.25,0,0,1-290,258a2.58,2.58,0,0,0-2.49,2.38c-.2,2.86-.31,5.77-.31,8.71,0,45.31,23.72,82.05,53,82.05,8.13,0,15.82-2.84,22.7-7.91Z" transform="translate(292.8 -237.31)"/><path class="cls-1" d="M-202.33,316.35a15,15,0,0,0-15,15,15,15,0,0,0,15,15,15,15,0,0,0,15-15A15,15,0,0,0-202.33,316.35Zm8.19,20.57a2,2,0,0,1,0,2.83,2,2,0,0,1-2.83,0l-4.95-4.95-5,4.95a2,2,0,0,1-2.82,0,2,2,0,0,1,0-2.83l4.95-4.95-4.95-5a2,2,0,0,1,0-2.82,2,2,0,0,1,2.82,0l5,4.95,4.95-4.95a2,2,0,0,1,2.83,0,2,2,0,0,1,0,2.82l-5,5Z" transform="translate(292.8 -237.31)"/></svg>