<?xml version="1.0" encoding="UTF-8"?>
<svg width="18px" height="18px" viewBox="0 0 18 18" version="1.1" xmlns="http://www.w3.org/2000/svg" xmlns:xlink="http://www.w3.org/1999/xlink">
    <!-- Generator: Sketch 52.2 (67145) - http://www.bohemiancoding.com/sketch -->
    <title>business-settings-s</title>
    <desc>Created with Sketch.</desc>
    <g id="Page-1" stroke="none" stroke-width="1" fill="none" fill-rule="evenodd">
        <g id="business-settings-s">
            <rect id="Rectangle" fill="#D8D8D8" opacity="0.01" x="0" y="0" width="18" height="18"></rect>
            <path d="M9.5,8.91464715 L9.5,14.5 C9.5,14.7761424 9.27614237,15 9,15 C8.72385763,15 8.5,14.7761424 8.5,14.5 L8.5,8.91464715 C7.91740381,8.70872894 7.5,8.15310941 7.5,7.5 C7.5,6.67157288 8.17157288,6 9,6 C9.82842712,6 10.5,6.67157288 10.5,7.5 C10.5,8.15310941 10.0825962,8.70872894 9.5,8.91464715 Z M14.0853529,15 C14.2912711,14.4174038 14.8468906,14 15.5,14 C16.3284271,14 17,14.6715729 17,15.5 C17,16.3284271 16.3284271,17 15.5,17 C14.8468906,17 14.2912711,16.5825962 14.0853529,16 L10.5,16 C10.2238576,16 10,15.7761424 10,15.5 L10,10.5 C10,10.2238576 10.2238576,10 10.5,10 C10.7761424,10 11,10.2238576 11,10.5 L11,15 L14.0853529,15 Z M3.91464715,15 L7,15 L7,10.5 C7,10.2238576 7.22385763,10 7.5,10 C7.77614237,10 8,10.2238576 8,10.5 L8,15.5 C8,15.7761424 7.77614237,16 7.5,16 L3.91464715,16 C3.70872894,16.5825962 3.15310941,17 2.5,17 C1.67157288,17 1,16.3284271 1,15.5 C1,14.6715729 1.67157288,14 2.5,14 C3.15310941,14 3.70872894,14.4174038 3.91464715,15 Z M12,14 L12,13 L14,13 C15.6568542,13 17,11.6568542 17,10 C17,8.61966372 16.0594883,7.42667059 14.7412143,7.09201916 L14.0385471,6.91364305 L13.9895521,6.19034595 C13.8302783,3.83903934 11.8701945,2 9.5,2 C7.78583124,2 6.24482228,2.96639577 5.48326312,4.46862789 L5.23007669,4.96805696 L4.67195983,5.01320489 C2.60541831,5.18037434 1,6.91275849 1,9 C1,11.209139 2.790861,13 5,13 L6,13 L6,14 L5,14 C2.23857625,14 0,11.7614237 0,9 C0,6.37616844 2.02105291,4.22437908 4.59132987,4.01646079 C5.49866282,2.22667903 7.35607829,1 9.5,1 C12.4107724,1 14.7934246,3.26115113 14.9872657,6.12276238 C16.7189506,6.56236054 18,8.13157771 18,10 C18,12.209139 16.209139,14 14,14 L12,14 Z M3.40119509,6.96799496 C3.64440639,6.837217 3.94758459,6.92836223 4.07836255,7.17157353 C4.20914051,7.41478483 4.11799528,7.71796303 3.87478398,7.84874099 C3.19680285,8.2133005 3.00563519,9.58688713 3.76278413,10.2476156 C3.97084424,10.4291799 3.99232331,10.7450329 3.81075898,10.9530931 C3.62919466,11.1611532 3.31334165,11.1826322 3.10528155,11.0010679 C1.81126114,9.8718368 2.11948274,7.65718881 3.40119509,6.96799496 Z M2.5,16 C2.77614237,16 3,15.7761424 3,15.5 C3,15.2238576 2.77614237,15 2.5,15 C2.22385763,15 2,15.2238576 2,15.5 C2,15.7761424 2.22385763,16 2.5,16 Z M15.5,16 C15.7761424,16 16,15.7761424 16,15.5 C16,15.2238576 15.7761424,15 15.5,15 C15.2238576,15 15,15.2238576 15,15.5 C15,15.7761424 15.2238576,16 15.5,16 Z M9,8 C9.27614237,8 9.5,7.77614237 9.5,7.5 C9.5,7.22385763 9.27614237,7 9,7 C8.72385763,7 8.5,7.22385763 8.5,7.5 C8.5,7.77614237 8.72385763,8 9,8 Z" id="Oval-3" fill="#29BECE" fill-rule="nonzero"></path>
        </g>
    </g>
</svg>