<?xml version="1.0" encoding="UTF-8"?>
<svg width="14px" height="14px" viewBox="0 0 14 14" version="1.1" xmlns="http://www.w3.org/2000/svg" xmlns:xlink="http://www.w3.org/1999/xlink">
    <!-- Generator: Sketch 52.2 (67145) - http://www.bohemiancoding.com/sketch -->
    <title>cardicon-finance</title>
    <desc>Created with Sketch.</desc>
    <g id="Page-1" stroke="none" stroke-width="1" fill="none" fill-rule="evenodd">
        <g id="cardicon-finance">
            <rect id="Rectangle" stroke="#6D7A80" fill="#FFFFFF" x="0.5" y="0.5" width="8" height="2"></rect>
            <rect id="Rectangle-Copy-19" stroke="#6D7A80" fill="#9FA8AC" x="0.5" y="2.5" width="7" height="2"></rect>
            <rect id="Rectangle-Copy-20" stroke="#6D7A80" fill="#FFFFFF" x="0.5" y="4.5" width="10" height="2"></rect>
            <rect id="Rectangle-Copy-21" stroke="#6D7A80" fill="#9FA8AC" x="0.5" y="6.5" width="13" height="2"></rect>
            <rect id="Rectangle-Copy-22" stroke="#6D7A80" fill="#FFFFFF" x="3.5" y="8.5" width="8" height="2"></rect>
            <rect id="Rectangle-Copy-23" stroke="#6D7A80" fill="#FFFFFF" x="3.5" y="10.5" width="7" height="2"></rect>
            <circle id="Oval" stroke="#6D7A80" fill="#FFFFFF" cx="5" cy="9" r="4.5"></circle>
            <path d="M5.01224007,6.64644661 L5.51224007,6.14644661 C5.70750222,5.95118446 6.02408471,5.95118446 6.21934686,6.14644661 C6.414609,6.34170876 6.414609,6.65829124 6.21934686,6.85355339 L6.03956936,7.03333089 L6.5,7.03333089 C6.77614237,7.03333089 7,7.25718852 7,7.53333089 C7,7.80947326 6.77614237,8.03333089 6.5,8.03333089 L5.50441997,8.03333089 L5.50441997,9.03333089 L6.5,9.03333089 C6.77614237,9.03333089 7,9.25718852 7,9.53333089 C7,9.80947326 6.77614237,10.0333309 6.5,10.0333309 L5.50441997,10.0333309 L5.50441997,11.6433137 C5.50441997,11.919456 5.28056234,12.1433137 5.00441997,12.1433137 C4.72827759,12.1433137 4.50441997,11.919456 4.50441997,11.6433137 L4.50441997,10.0333309 L3.5,10.0333309 C3.22385763,10.0333309 3,9.80947326 3,9.53333089 C3,9.25718852 3.22385763,9.03333089 3.5,9.03333089 L4.50441997,9.03333089 L4.50441997,8.03333089 L3.5,8.03333089 C3.22385763,8.03333089 3,7.80947326 3,7.53333089 C3,7.25718852 3.22385763,7.03333089 3.5,7.03333089 L3.98491079,7.03333089 L3.80513329,6.85355339 C3.60987115,6.65829124 3.60987115,6.34170876 3.80513329,6.14644661 C4.00039544,5.95118446 4.31697793,5.95118446 4.51224007,6.14644661 L5.01224007,6.64644661 Z" id="Rectangle-5" fill="#6D7A80"></path>
        </g>
    </g>
</svg>