<?xml version="1.0" encoding="UTF-8"?>
<svg width="18px" height="18px" viewBox="0 0 18 18" version="1.1" xmlns="http://www.w3.org/2000/svg" xmlns:xlink="http://www.w3.org/1999/xlink">
    <!-- Generator: Sketch 52.2 (67145) - http://www.bohemiancoding.com/sketch -->
    <title>cloud-service-s</title>
    <desc>Created with Sketch.</desc>
    <g id="Page-1" stroke="none" stroke-width="1" fill="none" fill-rule="evenodd">
        <g id="cloud-service-s">
            <rect id="Rectangle" fill="#D8D8D8" opacity="0.01" x="0" y="0" width="18" height="18"></rect>
            <path d="M4,13.8999819 C1.71775968,13.4367116 0,11.4189579 0,9 C0,6.37616844 2.02105291,4.22437908 4.59132987,4.01646079 C5.49866282,2.22667903 7.35607829,1 9.5,1 C12.4107724,1 14.7934246,3.26115113 14.9872657,6.12276238 C16.7189506,6.56236054 18,8.13157771 18,10 C18,12.209139 16.209139,14 14,14 L14,13 C15.6568542,13 17,11.6568542 17,10 C17,8.61966372 16.0594883,7.42667059 14.7412143,7.09201916 L14.0385471,6.91364305 L13.9895521,6.19034595 C13.8302783,3.83903934 11.8701945,2 9.5,2 C7.78583124,2 6.24482228,2.96639577 5.48326312,4.46862789 L5.23007669,4.96805696 L4.67195983,5.01320489 C2.60541831,5.18037434 1,6.91275849 1,9 C1,10.8638394 2.27477279,12.4299397 4,12.8739825 L4,13.8999819 Z M3.40119509,6.96799496 C3.64440639,6.837217 3.94758459,6.92836223 4.07836255,7.17157353 C4.20914051,7.41478483 4.11799528,7.71796303 3.87478398,7.84874099 C3.19680285,8.2133005 3.00563519,9.58688713 3.76278413,10.2476156 C3.97084424,10.4291799 3.99232331,10.7450329 3.81075898,10.9530931 C3.62919466,11.1611532 3.31334165,11.1826322 3.10528155,11.0010679 C1.81126114,9.8718368 2.11948274,7.65718881 3.40119509,6.96799496 Z M11.5863074,10.666183 C10.9177703,9.68131267 10.364514,9.88775493 9.44750684,11.7278059 L9.00836295,12.6089845 L8.5559225,11.7345585 C7.649859,9.98342094 7.07677412,9.76957986 6.40211463,10.6825251 C5.2768047,12.205288 6.46547284,14.5979607 8.98044666,15.844553 C11.5212873,14.4862757 12.6775581,12.2737833 11.5863074,10.666183 Z M12.4136926,10.1045481 C13.9541503,12.3739078 12.3715837,15.2691003 9.21362992,16.8497146 L8.99993084,16.9566749 L8.78247803,16.8575684 C5.61589971,15.4143661 3.98493593,12.2708397 5.59788537,10.088206 C6.67047007,8.63679059 7.89905282,8.86640139 8.99109582,10.5006862 C10.0979261,8.7677 11.3480923,8.53473525 12.4136926,10.1045481 Z" id="Oval-3" fill="#29BECE" fill-rule="nonzero"></path>
        </g>
    </g>
</svg>