<?xml version="1.0" encoding="UTF-8"?>
<svg width="18px" height="18px" viewBox="0 0 18 18" version="1.1" xmlns="http://www.w3.org/2000/svg" xmlns:xlink="http://www.w3.org/1999/xlink">
    <!-- Generator: Sketch 52.2 (67145) - http://www.bohemiancoding.com/sketch -->
    <title>cloud-management-s</title>
    <desc>Created with Sketch.</desc>
    <g id="Page-1" stroke="none" stroke-width="1" fill="none" fill-rule="evenodd">
        <g id="cloud-management-s">
            <rect id="Rectangle" fill="#D8D8D8" opacity="0.01" x="0" y="0" width="18" height="18"></rect>
            <path d="M16.6458244,10 C17.4762451,10.7329445 18,11.8053075 18,13 C18,15.209139 16.209139,17 14,17 L5,17 C2.23857625,17 0,14.7614237 0,12 C0,9.37616844 2.02105291,7.22437908 4.59132987,7.01646079 C5.11767767,5.9782006 5.96374824,5.12943633 7,4.59970959 L7,2 C7,1.44771525 7.44771525,1 8,1 L17,1 C17.5522847,1 18,1.44771525 18,2 L18,9 C18,9.55228475 17.5522847,10 17,10 L16.6458244,10 Z M14.9775785,9 L17,9 L17,2 L8,2 L8,4.20703249 C8.47683179,4.07216716 8.97998812,4 9.5,4 C12.3690213,4 14.7249641,6.19674999 14.9775785,9 Z M5,16 L14,16 C15.6568542,16 17,14.6568542 17,13 C17,11.6196637 16.0594883,10.4266706 14.7412143,10.0920192 L14.0385471,9.91364305 L13.9895521,9.19034595 C13.8302783,6.83903934 11.8701945,5 9.5,5 C7.78583124,5 6.24482228,5.96639577 5.48326312,7.46862789 L5.23007669,7.96805696 L4.67195983,8.01320489 C2.60541831,8.18037434 1,9.91275849 1,12 C1,14.209139 2.790861,16 5,16 Z M13.5,3 L15.5,3 C15.7761424,3 16,3.22385763 16,3.5 C16,3.77614237 15.7761424,4 15.5,4 L13.5,4 C13.2238576,4 13,3.77614237 13,3.5 C13,3.22385763 13.2238576,3 13.5,3 Z M3.40119509,9.96799496 C3.64440639,9.837217 3.94758459,9.92836223 4.07836255,10.1715735 C4.20914051,10.4147848 4.11799528,10.717963 3.87478398,10.848741 C3.19680285,11.2133005 3.00563519,12.5868871 3.76278413,13.2476156 C3.97084424,13.4291799 3.99232331,13.7450329 3.81075898,13.9530931 C3.62919466,14.1611532 3.31334165,14.1826322 3.10528155,14.0010679 C1.81126114,12.8718368 2.11948274,10.6571888 3.40119509,9.96799496 Z" id="Oval-3" fill="#29BECE" fill-rule="nonzero"></path>
        </g>
    </g>
</svg>