<?xml version="1.0" encoding="UTF-8"?>
<svg width="18px" height="18px" viewBox="0 0 18 18" version="1.1" xmlns="http://www.w3.org/2000/svg" xmlns:xlink="http://www.w3.org/1999/xlink">
    <!-- Generator: Sketch 52.2 (67145) - http://www.bohemiancoding.com/sketch -->
    <title>cloud-partner</title>
    <desc>Created with Sketch.</desc>
    <g id="Page-1" stroke="none" stroke-width="1" fill="none" fill-rule="evenodd">
        <g id="cloud-partner" fill="#CCCCCC">
            <rect id="Rectangle" opacity="0.01" x="0" y="0" width="18" height="18"></rect>
            <path d="M4,13.8999819 C1.71775968,13.4367116 0,11.4189579 0,9 C0,6.37616844 2.02105291,4.22437908 4.59132987,4.01646079 C5.49866282,2.22667903 7.35607829,1 9.5,1 C12.4107724,1 14.7934246,3.26115113 14.9872657,6.12276238 C16.7189506,6.56236054 18,8.13157771 18,10 C18,12.209139 16.209139,14 14,14 L14,13 C15.6568542,13 17,11.6568542 17,10 C17,8.61966372 16.0594883,7.42667059 14.7412143,7.09201916 L14.0385471,6.91364305 L13.9895521,6.19034595 C13.8302783,3.83903934 11.8701945,2 9.5,2 C7.78583124,2 6.24482228,2.96639577 5.48326312,4.46862789 L5.23007669,4.96805696 L4.67195983,5.01320489 C2.60541831,5.18037434 1,6.91275849 1,9 C1,10.8638394 2.27477279,12.4299397 4,12.8739825 L4,13.8999819 Z M3.40119509,6.96799496 C3.64440639,6.837217 3.94758459,6.92836223 4.07836255,7.17157353 C4.20914051,7.41478483 4.11799528,7.71796303 3.87478398,7.84874099 C3.19680285,8.2133005 3.00563519,9.58688713 3.76278413,10.2476156 C3.97084424,10.4291799 3.99232331,10.7450329 3.81075898,10.9530931 C3.62919466,11.1611532 3.31334165,11.1826322 3.10528155,11.0010679 C1.81126114,9.8718368 2.11948274,7.65718881 3.40119509,6.96799496 Z M7.14289226,11.356246 C6.44680015,10.8068585 6,9.95560715 6,9 C6,7.34314575 7.34314575,6 9,6 C10.6568542,6 12,7.34314575 12,9 C12,9.95560715 11.5531998,10.8068585 10.8571077,11.356246 C12.698974,12.0935025 14,13.8948158 14,16 C14,16.3424658 13.9655697,16.6768901 13.8999819,17 L12.8739825,17 C12.956247,16.6803801 13,16.3452996 13,16 C13,13.790861 11.209139,12 9,12 C6.790861,12 5,13.790861 5,16 C5,16.3452996 5.043753,16.6803801 5.12601749,17 L4.10001812,17 C4.03443026,16.6768901 4,16.3424658 4,16 C4,13.8948158 5.30102603,12.0935025 7.14289226,11.356246 Z M8,17 C8,16.4477153 8.44771525,16 9,16 C9.55228475,16 10,16.4477153 10,17 L8,17 Z M9,11 C10.1045695,11 11,10.1045695 11,9 C11,7.8954305 10.1045695,7 9,7 C7.8954305,7 7,7.8954305 7,9 C7,10.1045695 7.8954305,11 9,11 Z M9,15 C8.44771525,15 8,14.5522847 8,14 C8,13.4477153 8.44771525,13 9,13 C9.55228475,13 10,13.4477153 10,14 C10,14.5522847 9.55228475,15 9,15 Z" id="Oval-3" fill-rule="nonzero"></path>
        </g>
    </g>
</svg>