<?xml version="1.0" encoding="UTF-8"?>
<svg width="18px" height="18px" viewBox="0 0 18 18" version="1.1" xmlns="http://www.w3.org/2000/svg" xmlns:xlink="http://www.w3.org/1999/xlink">
    <!-- Generator: Sketch 52.2 (67145) - http://www.bohemiancoding.com/sketch -->
    <title>commodity-management-s</title>
    <desc>Created with Sketch.</desc>
    <g id="Page-1" stroke="none" stroke-width="1" fill="none" fill-rule="evenodd">
        <g id="commodity-management-s">
            <rect id="Rectangle" fill="#D8D8D8" opacity="0.01" x="0" y="0" width="18" height="18"></rect>
            <path d="M12,6.56300874 L12,5 L6,5 L6,6.56300874 C6.86261361,6.78503014 7.5,7.56808029 7.5,8.5 C7.5,9.6045695 6.6045695,10.5 5.5,10.5 C4.3954305,10.5 3.5,9.6045695 3.5,8.5 C3.5,7.56808029 4.13738639,6.78503014 5,6.56300874 L5,5 L2.15300969,5 L3.8672954,17 L14.1327046,17 L15.8469903,5 L13,5 L13,6.56300874 C13.8626136,6.78503014 14.5,7.56808029 14.5,8.5 C14.5,9.6045695 13.6045695,10.5 12.5,10.5 C11.3954305,10.5 10.5,9.6045695 10.5,8.5 C10.5,7.56808029 11.1373864,6.78503014 12,6.56300874 Z M5,4 C5,1.790861 6.790861,0 9,0 C11.209139,0 13,1.790861 13,4 L15.8469903,4 C16.3992751,4 16.8469903,4.44771525 16.8469903,5 C16.8469903,5.04731887 16.8436317,5.09457807 16.8369398,5.14142136 L15.1226541,17.1414214 C15.0522757,17.6340701 14.630355,18 14.1327046,18 L3.8672954,18 C3.36964503,18 2.9477243,17.6340701 2.87734591,17.1414214 L1.16306019,5.14142136 C1.08495534,4.59468735 1.46485432,4.08815536 2.01158833,4.01005051 C2.05843162,4.00335861 2.10569082,4 2.15300969,4 L5,4 Z M6,4 L12,4 C12,2.34314575 10.6568542,1 9,1 C7.34314575,1 6,2.34314575 6,4 Z M7.5,14 L10.5,14 C10.7761424,14 11,14.2238576 11,14.5 C11,14.7761424 10.7761424,15 10.5,15 L7.5,15 C7.22385763,15 7,14.7761424 7,14.5 C7,14.2238576 7.22385763,14 7.5,14 Z M5.5,9.5 C6.05228475,9.5 6.5,9.05228475 6.5,8.5 C6.5,7.94771525 6.05228475,7.5 5.5,7.5 C4.94771525,7.5 4.5,7.94771525 4.5,8.5 C4.5,9.05228475 4.94771525,9.5 5.5,9.5 Z M12.5,9.5 C13.0522847,9.5 13.5,9.05228475 13.5,8.5 C13.5,7.94771525 13.0522847,7.5 12.5,7.5 C11.9477153,7.5 11.5,7.94771525 11.5,8.5 C11.5,9.05228475 11.9477153,9.5 12.5,9.5 Z" id="Rectangle" fill="#29BECE" fill-rule="nonzero"></path>
        </g>
    </g>
</svg>