<?xml version="1.0" encoding="UTF-8"?>
<svg width="18px" height="18px" viewBox="0 0 18 18" version="1.1" xmlns="http://www.w3.org/2000/svg" xmlns:xlink="http://www.w3.org/1999/xlink">
    <!-- Generator: Sketch 52.2 (67145) - http://www.bohemiancoding.com/sketch -->
    <title>credit-platform-s</title>
    <desc>Created with Sketch.</desc>
    <g id="Page-1" stroke="none" stroke-width="1" fill="none" fill-rule="evenodd">
        <g id="credit-platform-s">
            <rect id="Rectangle" fill="#D8D8D8" opacity="0.01" x="0" y="0" width="18" height="18"></rect>
            <path d="M11,14.8667908 L11,17.5 C11,17.7761424 10.7761424,18 10.5,18 C10.2238576,18 10,17.7761424 10,17.5 L10,15.440149 L9.5192886,15.7157688 C9.2121093,15.8918926 8.83469404,15.8924397 8.52700538,15.7172074 L8,15.4170715 L8,17.5 C8,17.7761424 7.77614237,18 7.5,18 C7.22385763,18 7,17.7761424 7,17.5 L7,14.8475596 L2.50511711,12.2876702 C2.19283574,12.1098223 2,11.7780844 2,11.4187105 L2,2 L1.5,2 C1.22385763,2 1,1.77614237 1,1.5 C1,1.22385763 1.22385763,1 1.5,1 L8,1 C8,0.44771525 8.44771525,1.01453063e-16 9,0 C9.55228475,-1.01453063e-16 10,0.44771525 10,1 L16.5,1 C16.7761424,1 17,1.22385763 17,1.5 C17,1.77614237 16.7761424,2 16.5,2 L16,2 L16,11.4206485 C16,11.7789858 15.8082655,12.1099325 15.4974003,12.2881696 L11,14.8667908 Z M3,2 L3,11.4187105 L9.02188827,14.8482477 L15,11.4206485 L15,2 L3,2 Z M6.57257873,11.3410587 L7.03617494,8.63808544 L5.07234988,6.72382912 L7.78628937,6.32947063 L9,3.87022427 L10.2137106,6.32947063 L12.9276501,6.72382912 L10.9638251,8.63808544 L11.4274213,11.3410587 L9,10.0648879 L6.57257873,11.3410587 Z M9,8.93511213 L10.0992902,9.51304322 L9.88934449,8.28896554 L10.778689,7.42206892 L9.54964512,7.24347839 L9,6.12977573 L8.45035488,7.24347839 L7.22131102,7.42206892 L8.11065551,8.28896554 L7.90070976,9.51304322 L9,8.93511213 Z" id="Rectangle" fill="#29BECE" fill-rule="nonzero"></path>
        </g>
    </g>
</svg>