<?xml version="1.0" encoding="UTF-8"?>
<svg width="18px" height="18px" viewBox="0 0 18 18" version="1.1" xmlns="http://www.w3.org/2000/svg" xmlns:xlink="http://www.w3.org/1999/xlink">
    <!-- Generator: Sketch 52.2 (67145) - http://www.bohemiancoding.com/sketch -->
    <title>data-platform</title>
    <desc>Created with Sketch.</desc>
    <g id="Page-1" stroke="none" stroke-width="1" fill="none" fill-rule="evenodd">
        <g id="data-platform">
            <rect id="Rectangle" fill="#D8D8D8" opacity="0.01" x="0" y="0" width="18" height="18"></rect>
            <path d="M4.97571133,6.14924032 C4.82312756,5.86680961 4.73651227,5.54350202 4.73651227,5.19996435 C4.73651227,4.09539485 5.63194277,3.19996435 6.73651227,3.19996435 C7.84108177,3.19996435 8.73651227,4.09539485 8.73651227,5.19996435 C8.73651227,5.45382887 8.68921351,5.69664617 8.60294772,5.92008451 L10.3588093,7.3075337 L14.3816969,3.21912635 C14.5753755,3.02229338 14.8919477,3.01973624 15.0887807,3.21341482 C15.2856136,3.4070934 15.2881708,3.72366556 15.0944922,3.92049854 L10.7570738,8.32855934 C10.5781057,8.51044223 10.2908914,8.52838054 10.090683,8.37017956 L8.01993877,6.73391596 C7.67261225,7.02482655 7.22501507,7.19996435 6.73651227,7.19996435 C6.33865748,7.19996435 5.9679357,7.08379409 5.65641726,6.88352387 L4.08233887,8.49725827 C3.88952068,8.69493416 3.57296269,8.6988721 3.3752868,8.50605391 C3.17761091,8.31323572 3.17367297,7.99667773 3.36649116,7.79900184 L4.97571133,6.14924032 Z M11,14 L11,16 L11.5,16 C11.7761424,16 12,16.2238576 12,16.5 C12,16.7761424 11.7761424,17 11.5,17 L6.5,17 C6.22385763,17 6,16.7761424 6,16.5 C6,16.2238576 6.22385763,16 6.5,16 L7,16 L7,14 L2,14 C1.44771525,14 1,13.5522847 1,13 L1,2 C1,1.44771525 1.44771525,1 2,1 L16,1 C16.5522847,1 17,1.44771525 17,2 L17,13 C17,13.5522847 16.5522847,14 16,14 L11,14 Z M10,14 L8,14 L8,16 L10,16 L10,14 Z M2,2 L2,13 L16,13 L16,2 L2,2 Z M3.5,10 L14.5,10 C14.7761424,10 15,10.2238576 15,10.5 C15,10.7761424 14.7761424,11 14.5,11 L3.5,11 C3.22385763,11 3,10.7761424 3,10.5 C3,10.2238576 3.22385763,10 3.5,10 Z M6.73651227,6.19996435 C7.28879702,6.19996435 7.73651227,5.7522491 7.73651227,5.19996435 C7.73651227,4.6476796 7.28879702,4.19996435 6.73651227,4.19996435 C6.18422752,4.19996435 5.73651227,4.6476796 5.73651227,5.19996435 C5.73651227,5.7522491 6.18422752,6.19996435 6.73651227,6.19996435 Z" id="Rectangle" fill="#CCCCCC" fill-rule="nonzero"></path>
        </g>
    </g>
</svg>