<?xml version="1.0" encoding="UTF-8"?>
<svg width="18px" height="18px" viewBox="0 0 18 18" version="1.1" xmlns="http://www.w3.org/2000/svg" xmlns:xlink="http://www.w3.org/1999/xlink">
    <!-- Generator: Sketch 52.2 (67145) - http://www.bohemiancoding.com/sketch -->
    <title>enterprise-certification-s</title>
    <desc>Created with Sketch.</desc>
    <g id="Page-1" stroke="none" stroke-width="1" fill="none" fill-rule="evenodd">
        <g id="enterprise-certification-s">
            <rect id="Rectangle" fill="#D8D8D8" opacity="0.01" x="0" y="0" width="18" height="18"></rect>
            <path d="M8.5,2 L8.5,1.5 C8.5,1.22385763 8.72385763,1 9,1 C9.27614237,1 9.5,1.22385763 9.5,1.5 L9.5,2 L11,2 C11.5522847,2 12,2.44771525 12,3 L12,4 L13,4 C13.5522847,4 14,4.44771525 14,5 L14,7 L16,7 C16.5522847,7 17,7.44771525 17,8 L17,16 C17,16.5522847 16.5522847,17 16,17 L13,17 L5,17 L2,17 C1.44771525,17 1,16.5522847 1,16 L1,8 C1,7.44771525 1.44771525,7 2,7 L4,7 L4,5 C4,4.44771525 4.44771525,4 5,4 L6,4 L6,3 C6,2.44771525 6.44771525,2 7,2 L8.5,2 Z M11,13 L11,16 L13,16 L13,8 L13,5 L11,5 L7,5 L5,5 L5,8 L5,16 L7,16 L7,13 L6.5,13 C6.22385763,13 6,12.7761424 6,12.5 C6,12.2238576 6.22385763,12 6.5,12 L11.5,12 C11.7761424,12 12,12.2238576 12,12.5 C12,12.7761424 11.7761424,13 11.5,13 L11,13 Z M8,13 L8,16 L10,16 L10,13 L8,13 Z M11,4 L11,3 L7,3 L7,4 L11,4 Z M14,13 L14.5,13 C14.7761424,13 15,13.2238576 15,13.5 C15,13.7761424 14.7761424,14 14.5,14 L14,14 L14,16 L16,16 L16,8 L14,8 L14,10 L14.5,10 C14.7761424,10 15,10.2238576 15,10.5 C15,10.7761424 14.7761424,11 14.5,11 L14,11 L14,13 Z M4,13 L4,11 L3.5,11 C3.22385763,11 3,10.7761424 3,10.5 C3,10.2238576 3.22385763,10 3.5,10 L4,10 L4,8 L2,8 L2,16 L4,16 L4,14 L3.5,14 C3.22385763,14 3,13.7761424 3,13.5 C3,13.2238576 3.22385763,13 3.5,13 L4,13 Z M8.42379845,9.34012189 L10.8986722,6.86524816 C11.0939343,6.66998601 11.4105168,6.66998601 11.605779,6.86524816 C11.8010411,7.0605103 11.8010411,7.37709279 11.605779,7.57235494 L8.77735184,10.4007821 C8.58208969,10.5960442 8.2655072,10.5960442 8.07024506,10.4007821 L6.65603149,8.9865685 C6.46076935,8.79130635 6.46076935,8.47472386 6.65603149,8.27946172 C6.85129364,8.08419957 7.16787613,8.08419957 7.36313828,8.27946172 L8.42379845,9.34012189 Z" id="Rectangle" fill="#29BECE" fill-rule="nonzero"></path>
        </g>
    </g>
</svg>