<?xml version="1.0" encoding="UTF-8"?>
<svg width="18px" height="18px" viewBox="0 0 18 18" version="1.1" xmlns="http://www.w3.org/2000/svg" xmlns:xlink="http://www.w3.org/1999/xlink">
    <!-- Generator: Sketch 52.2 (67145) - http://www.bohemiancoding.com/sketch -->
    <title>expert-library</title>
    <desc>Created with Sketch.</desc>
    <g id="Page-1" stroke="none" stroke-width="1" fill="none" fill-rule="evenodd">
        <g id="expert-library">
            <rect id="Rectangle" fill="#D8D8D8" opacity="0.01" x="0" y="0" width="18" height="18"></rect>
            <path d="M8.5,16.086704 L8.5,15.5 C8.5,15.2238576 8.72385763,15 9,15 C9.27614237,15 9.5,15.2238576 9.5,15.5 L9.5,16.1016207 L12,16.7216783 L12,13.3263688 C11.0907446,13.758309 10.0735973,14 9,14 C7.92640271,14 6.90925538,13.758309 6,13.3263688 L6,16.7167258 L8.5,16.086704 Z M13,12.7453107 L13,18 L8.96811648,17 L5,18 L5,12.7453107 C3.1865159,11.4803646 2,9.37874511 2,7 C2,3.13400675 5.13400675,0 9,0 C12.8659932,0 16,3.13400675 16,7 C16,9.37874511 14.8134841,11.4803646 13,12.7453107 Z M9,13 C12.3137085,13 15,10.3137085 15,7 C15,3.6862915 12.3137085,1 9,1 C5.6862915,1 3,3.6862915 3,7 C3,10.3137085 5.6862915,13 9,13 Z M9,11 C11.209139,11 13,9.209139 13,7 C13,4.790861 11.209139,3 9,3 C6.790861,3 5,4.790861 5,7 C5,9.209139 6.790861,11 9,11 Z M9,12 C6.23857625,12 4,9.76142375 4,7 C4,4.23857625 6.23857625,2 9,2 C11.7614237,2 14,4.23857625 14,7 C14,9.76142375 11.7614237,12 9,12 Z M9,7.43511213 L9.51150499,7.70402622 L9.41381623,7.13445704 L9.82763246,6.73108591 L9.2557525,6.64798689 L9,6.12977573 L8.7442475,6.64798689 L8.17236754,6.73108591 L8.58618377,7.13445704 L8.48849501,7.70402622 L9,7.43511213 Z M7.16036398,9.53204175 L7.5117032,7.48357694 L6.0234064,6.03284611 L8.08018199,5.73397912 L9,3.87022427 L9.91981801,5.73397912 L11.9765936,6.03284611 L10.4882968,7.48357694 L10.839636,9.53204175 L9,8.56488787 L7.16036398,9.53204175 Z" id="Oval" fill="#CCCCCC" fill-rule="nonzero"></path>
        </g>
    </g>
</svg>