<?xml version="1.0" encoding="UTF-8"?>
<svg width="18px" height="18px" viewBox="0 0 18 18" version="1.1" xmlns="http://www.w3.org/2000/svg" xmlns:xlink="http://www.w3.org/1999/xlink">
    <!-- Generator: Sketch 52.2 (67145) - http://www.bohemiancoding.com/sketch -->
    <title>finance-s</title>
    <desc>Created with Sketch.</desc>
    <g id="Page-1" stroke="none" stroke-width="1" fill="none" fill-rule="evenodd">
        <g id="finance-s">
            <rect id="Rectangle" fill="#D8D8D8" opacity="0.01" x="0" y="0" width="18" height="18"></rect>
            <path d="M10.3177951,16 C9.36748883,16.6318473 8.22673775,17 7,17 C3.6862915,17 1,14.3137085 1,11 L1,10 L1,8 L1,6 L1,4 L1,2 C1,1.44771525 1.44771525,1 2,1 L10,1 C10.5522847,1 11,1.44771525 11,2 L11,3 L14,3 C14.5522847,3 15,3.44771525 15,4 L15,5 C15,5.55228475 14.5522847,6 14,6 L13,6 L13,7 L16,7 C16.5522847,7 17,7.44771525 17,8 L17,9 C17,9.55228475 16.5522847,10 16,10 L16,11 C16,11.5522847 15.5522847,12 15,12 L13,12 L13,13 L15,13 C15.5522847,13 16,13.4477153 16,14 L16,15 C16,15.5522847 15.5522847,16 15,16 L10.3177951,16 Z M11.472213,15 L15,15 L15,14 L12.1973068,14 C11.9899716,14.3584208 11.7466245,14.6934033 11.472213,15 Z M13,11 L15,11 L15,10 L12.9170416,10 C12.9716012,10.3252085 13,10.6592878 13,11 Z M12.1973068,8 C12.3802312,8.31622176 12.5351244,8.65068765 12.6585886,9 L15,9 L16,9 L16,8 L12.1973068,8 Z M10.3177951,6 C10.7440617,6.28341957 11.1320102,6.61989539 11.472213,7 L12,7 L12,6 L10.3177951,6 Z M3.68220488,6 L2,6 L2,7 L2.52778699,7 C2.86798982,6.61989539 3.25593828,6.28341957 3.68220488,6 Z M2,5 L12,5 L14,5 L14,4 L10,4 L2,4 L2,5 Z M10,3 L10,2 L2,2 L2,3 L10,3 Z M7,16 C9.76142375,16 12,13.7614237 12,11 C12,8.23857625 9.76142375,6 7,6 C4.23857625,6 2,8.23857625 2,11 C2,13.7614237 4.23857625,16 7,16 Z M7.02444795,8.84092991 L7.87800134,7.98737652 C8.07326349,7.79211437 8.38984598,7.79211437 8.58510812,7.98737652 C8.78037027,8.18263866 8.78037027,8.49922115 8.58510812,8.6944833 L7.88762955,9.39196187 L9.02166777,9.39196187 C9.29781015,9.39196187 9.52166777,9.6158195 9.52166777,9.89196187 C9.52166777,10.1681042 9.29781015,10.3919619 9.02166777,10.3919619 L7.47448848,10.3919619 C7.48079698,10.4236784 7.48410535,10.456476 7.48410535,10.4900462 L7.48410535,11.3919619 L9.02166777,11.3919619 C9.29781015,11.3919619 9.52166777,11.6158195 9.52166777,11.8919619 C9.52166777,12.1681042 9.29781015,12.3919619 9.02166777,12.3919619 L7.48410535,12.3919619 L7.48410535,14.4900462 C7.48410535,14.7661886 7.26024773,14.9900462 6.98410535,14.9900462 C6.70796298,14.9900462 6.48410535,14.7661886 6.48410535,14.4900462 L6.48410535,12.3919619 L5.02166777,12.3919619 C4.7455254,12.3919619 4.52166777,12.1681042 4.52166777,11.8919619 C4.52166777,11.6158195 4.7455254,11.3919619 5.02166777,11.3919619 L6.48410535,11.3919619 L6.48410535,10.4900462 C6.48410535,10.456476 6.48741373,10.4236784 6.49372223,10.3919619 L5.02166777,10.3919619 C4.7455254,10.3919619 4.52166777,10.1681042 4.52166777,9.89196187 C4.52166777,9.6158195 4.7455254,9.39196187 5.02166777,9.39196187 L6.16126636,9.39196187 L5.46378778,8.6944833 C5.26852564,8.49922115 5.26852564,8.18263866 5.46378778,7.98737652 C5.65904993,7.79211437 5.97563242,7.79211437 6.17089456,7.98737652 L7.02444795,8.84092991 Z" id="Rectangle" fill="#29BECE" fill-rule="nonzero"></path>
        </g>
    </g>
</svg>