<?xml version="1.0" encoding="UTF-8"?>
<svg width="18px" height="18px" viewBox="0 0 18 18" version="1.1" xmlns="http://www.w3.org/2000/svg" xmlns:xlink="http://www.w3.org/1999/xlink">
    <!-- Generator: Sketch 52.2 (67145) - http://www.bohemiancoding.com/sketch -->
    <title>governance-platform</title>
    <desc>Created with Sketch.</desc>
    <g id="Page-1" stroke="none" stroke-width="1" fill="none" fill-rule="evenodd">
        <g id="governance-platform">
            <rect id="Rectangle" fill="#D8D8D8" opacity="0.01" x="0" y="0" width="18" height="18"></rect>
            <path d="M3.91464715,9 L6,9 C6,7.34314575 7.34314575,6 9,6 C10.6568542,6 12,7.34314575 12,9 C12,10.6568542 10.6568542,12 9,12 C7.69378117,12 6.58254212,11.1651924 6.17070571,10 L3.91464715,10 C3.70872894,10.5825962 3.15310941,11 2.5,11 C1.67157288,11 1,10.3284271 1,9.5 C1,8.67157288 1.67157288,8 2.5,8 C3.15310941,8 3.70872894,8.41740381 3.91464715,9 Z M13.882296,13.3412208 C14.2013969,13.1257845 14.5860092,13 15,13 C16.1045695,13 17,13.8954305 17,15 C17,16.1045695 16.1045695,17 15,17 C13.8954305,17 13,16.1045695 13,15 C13,14.6699875 13.0799294,14.3586435 13.2214853,14.084271 C13.1994079,14.0684691 13.1783275,14.0506536 13.1584983,14.0308244 L11.7442848,12.6166108 C11.5490226,12.4213487 11.5490226,12.1047662 11.7442848,11.909504 C11.7532079,11.9005809 11.7623844,11.8920655 11.7717912,11.8839579 C12.5288594,11.1561548 13,10.1330978 13,9 C13,8.51105458 12.9122723,8.04259905 12.7516986,7.60951505 L13.7076107,7.31120617 C13.8968828,7.83874484 14,8.40733026 14,9 C14,10.2427877 13.546581,11.3796738 12.7961444,12.2542569 L13.8656051,13.3237176 C13.871337,13.3294495 13.8769006,13.3352859 13.882296,13.3412208 Z M13.4655759,4.28286212 C13.1749482,3.93561516 13,3.48823825 13,3 C13,1.8954305 13.8954305,1 15,1 C16.1045695,1 17,1.8954305 17,3 C17,4.1045695 16.1045695,5 15,5 C14.7404515,5 14.4924504,4.9505595 14.2649008,4.86058249 C14.2413515,4.90822055 14.2097463,4.95288667 14.1700854,4.99254758 L12.7558719,6.40676114 C12.5610594,6.6015736 12.2454847,6.60202225 12.0501161,6.40810709 L12.0483263,6.40995192 C11.3146245,5.54727588 10.2212238,5 9,5 C7.76473245,5 6.6602448,5.55993532 5.92650463,6.43983836 L5.17200441,5.78323319 C6.08919737,4.69289652 7.46368136,4 9,4 C10.3167178,4 11.5145596,4.50896887 12.4075191,5.34090033 L13.4629786,4.2854408 C13.463842,4.28457742 13.4647078,4.28371786 13.4655759,4.28286212 Z M9,11 C10.1045695,11 11,10.1045695 11,9 C11,7.8954305 10.1045695,7 9,7 C7.8954305,7 7,7.8954305 7,9 C7,10.1045695 7.8954305,11 9,11 Z M5.09551297,12.1235896 L5.87641038,11.4988717 C6.60944864,12.4139808 7.73628826,13 9,13 C9.31892752,13 9.62913732,12.962675 9.92649944,12.892155 L10.1581243,13.8651937 C9.78642165,13.9533438 9.3986594,14 9,14 C7.42036033,14 6.0118108,13.267476 5.09551297,12.1235896 Z M15,4 C15.5522847,4 16,3.55228475 16,3 C16,2.44771525 15.5522847,2 15,2 C14.4477153,2 14,2.44771525 14,3 C14,3.55228475 14.4477153,4 15,4 Z M15,16 C15.5522847,16 16,15.5522847 16,15 C16,14.4477153 15.5522847,14 15,14 C14.4477153,14 14,14.4477153 14,15 C14,15.5522847 14.4477153,16 15,16 Z M2.5,10 C2.77614237,10 3,9.77614237 3,9.5 C3,9.22385763 2.77614237,9 2.5,9 C2.22385763,9 2,9.22385763 2,9.5 C2,9.77614237 2.22385763,10 2.5,10 Z" id="Oval" fill="#CCCCCC" fill-rule="nonzero"></path>
        </g>
    </g>
</svg>