<?xml version="1.0" encoding="UTF-8"?>
<svg width="18px" height="18px" viewBox="0 0 18 18" version="1.1" xmlns="http://www.w3.org/2000/svg" xmlns:xlink="http://www.w3.org/1999/xlink">
    <!-- Generator: Sketch 52.2 (67145) - http://www.bohemiancoding.com/sketch -->
    <title>group</title>
    <desc>Created with Sketch.</desc>
    <g id="Page-1" stroke="none" stroke-width="1" fill="none" fill-rule="evenodd">
        <g id="group">
            <rect id="Rectangle" fill="#D8D8D8" opacity="0.01" x="0" y="0" width="18" height="18"></rect>
            <g id="Group-20" transform="translate(1.000000, 1.000000)" stroke="#CCCCCC">
                <path d="M3.5,15.5 L3.5,8 C3.5,7.72385763 3.27614237,7.5 3,7.5 L1,7.5 C0.723857625,7.5 0.5,7.72385763 0.5,8 L0.5,15 C0.5,15.2761424 0.723857625,15.5 1,15.5 L3.5,15.5 Z" id="Rectangle-Copy-8"></path>
                <path d="M12.5,15.5 L15,15.5 C15.2761424,15.5 15.5,15.2761424 15.5,15 L15.5,8 C15.5,7.72385763 15.2761424,7.5 15,7.5 L13,7.5 C12.7238576,7.5 12.5,7.72385763 12.5,8 L12.5,15.5 Z" id="Rectangle-Copy-8"></path>
                <rect id="Rectangle" x="3.5" y="3.5" width="9" height="12" rx="1"></rect>
                <rect id="Rectangle" x="6.5" y="11.5" width="3" height="4" rx="1"></rect>
                <rect id="Rectangle" fill="#CCCCCC" x="5.5" y="11.5" width="5" height="1" rx="0.5"></rect>
                <path d="M8.01127113,0.707107626 L5.20974595,3.5 L10.7955307,3.5 L8.01127113,0.707107626 Z" id="Rectangle"></path>
                <rect id="Rectangle" fill="#CCCCCC" x="5.5" y="6.5" width="1" height="1"></rect>
                <rect id="Rectangle" fill="#CCCCCC" x="9.5" y="6.5" width="1" height="1"></rect>
                <rect id="Rectangle" fill="#CCCCCC" x="2.5" y="10.5" width="1" height="1" rx="0.5"></rect>
                <rect id="Rectangle" fill="#CCCCCC" x="2.5" y="12.5" width="1" height="1" rx="0.5"></rect>
                <rect id="Rectangle" fill="#CCCCCC" x="12.5" y="10.5" width="1" height="1" rx="0.5"></rect>
                <rect id="Rectangle" fill="#CCCCCC" x="12.5" y="12.5" width="1" height="1" rx="0.5"></rect>
            </g>
        </g>
    </g>
</svg>