<?xml version="1.0" encoding="UTF-8"?>
<svg width="18px" height="18px" viewBox="0 0 18 18" version="1.1" xmlns="http://www.w3.org/2000/svg" xmlns:xlink="http://www.w3.org/1999/xlink">
    <!-- Generator: Sketch 52.2 (67145) - http://www.bohemiancoding.com/sketch -->
    <title>import</title>
    <desc>Created with Sketch.</desc>
    <g id="Page-1" stroke="none" stroke-width="1" fill="none" fill-rule="evenodd">
        <g id="import">
            <rect id="Rectangle" fill="#D8D8D8" opacity="0.01" x="0" y="0" width="18" height="18"></rect>
            <path d="M11.3871546,10 L13.6091795,10 C13.8853219,10 14.1091795,10.2238576 14.1091795,10.5 C14.1091795,10.6491795 14.0425678,10.7905669 13.9275352,10.8855511 L9.58726521,14.4693806 C9.21501415,14.7767542 8.6763182,14.77431 8.30687164,14.4635712 L4.04940441,10.8826464 C3.83807463,10.7048985 3.81085117,10.3894887 3.98859912,10.1781589 C4.08360156,10.0652077 4.2236534,10 4.37124554,10 L6.38715458,10 L6.38715458,2 C6.38715458,1.44771525 6.83486983,1 7.38715458,1 L10.3871546,1 C10.9394393,1 11.3871546,1.44771525 11.3871546,2 L11.3871546,10 Z M7.38715458,10 L10.3871546,10 L10.3871546,2 L7.38715458,2 L7.38715458,10 Z M5,8 L5,9 L2.38742589,9 L4.72075922,16 L13.2792408,16 L15.6125741,9 L13,9 L13,8 L15.6125741,8 C16.1648589,8 16.6125741,8.44771525 16.6125741,9 C16.6125741,9.1074821 16.5952462,9.2142613 16.5612574,9.31622777 L14.2279241,16.3162278 C14.09181,16.7245699 13.7096712,17 13.2792408,17 L4.72075922,17 C4.29032881,17 3.90818997,16.7245699 3.77207592,16.3162278 L1.43874259,9.31622777 C1.26409482,8.79228445 1.5472548,8.22596447 2.07119812,8.0513167 C2.17316459,8.01732788 2.27994379,8 2.38742589,8 L5,8 Z M8.9505539,13.6982783 L12.2183591,11 L5.74249108,11 L8.9505539,13.6982783 Z" id="Rectangle" fill="#CCCCCC" fill-rule="nonzero"></path>
        </g>
    </g>
</svg>