<?xml version="1.0" encoding="UTF-8"?>
<svg width="18px" height="18px" viewBox="0 0 18 18" version="1.1" xmlns="http://www.w3.org/2000/svg" xmlns:xlink="http://www.w3.org/1999/xlink">
    <!-- Generator: Sketch 52.2 (67145) - http://www.bohemiancoding.com/sketch -->
    <title>interface-management</title>
    <desc>Created with Sketch.</desc>
    <g id="Page-1" stroke="none" stroke-width="1" fill="none" fill-rule="evenodd">
        <g id="interface-management">
            <rect id="Rectangle" fill="#D8D8D8" opacity="0.01" x="0" y="0" width="18" height="18"></rect>
            <path d="M6.49413615,15 C6.68153532,16.8873431 7.98076904,17.493478 9.69000908,16.4713659 C10.2068016,16.1623281 10.5683035,15.7191566 11.1645501,14.7562671 C11.1546758,14.7722133 11.390233,14.3902313 11.4580839,14.281703 C12.7672059,12.1877477 14.0049992,11.2751608 16.4841949,11.2751608 C16.7603373,11.2751608 16.9841949,11.4990184 16.9841949,11.7751608 C16.9841949,12.0513032 16.7603373,12.2751608 16.4841949,12.2751608 C14.4082806,12.2751608 13.4503724,12.981397 12.3060094,14.8118185 C12.2400846,14.9172658 12.0063379,15.296312 12.0147472,15.2827316 C11.3380385,16.3755608 10.8993635,16.9133401 10.2032372,17.3296182 C7.82112289,18.7541038 5.71788767,17.6813254 5.49107335,15 L4,15 C3.44771525,15 3,14.5522847 3,14 L3,12 L2,12 C1.44771525,12 1,11.5522847 1,11 L1,5 C1,4.44771525 1.44771525,4 2,4 L2,1 C2,0.44771525 2.44771525,4.98394446e-14 3,4.97379915e-14 L9,4.97379915e-14 C9.55228475,4.96365384e-14 10,0.44771525 10,1 L10,4 C10.5522847,4 11,4.44771525 11,5 L11,11 C11,11.5522847 10.5522847,12 10,12 L9,12 L9,14 C9,14.5522847 8.55228475,15 8,15 L6.49413615,15 Z M3,5 L2,5 L2,11 L4,11 L4,14 L8,14 L8,11 L10,11 L10,5 L9,5 L3,5 Z M3,1 L3,4 L9,4 L9,1 L3,1 Z M4.5,2 C4.77614237,2 5,2.22385763 5,2.5 L5,3.5 C5,3.77614237 4.77614237,4 4.5,4 C4.22385763,4 4,3.77614237 4,3.5 L4,2.5 C4,2.22385763 4.22385763,2 4.5,2 Z M7.5,1 C7.77614237,1 8,1.22385763 8,1.5 L8,2.5 C8,2.77614237 7.77614237,3 7.5,3 C7.22385763,3 7,2.77614237 7,2.5 L7,1.5 C7,1.22385763 7.22385763,1 7.5,1 Z M5.5,12 L6.5,12 C6.77614237,12 7,12.2238576 7,12.5 C7,12.7761424 6.77614237,13 6.5,13 L5.5,13 C5.22385763,13 5,12.7761424 5,12.5 C5,12.2238576 5.22385763,12 5.5,12 Z M12.5,3 L16.5,3 C16.7761424,3 17,3.22385763 17,3.5 C17,3.77614237 16.7761424,4 16.5,4 L12.5,4 C12.2238576,4 12,3.77614237 12,3.5 C12,3.22385763 12.2238576,3 12.5,3 Z M14.5,6 L16.5,6 C16.7761424,6 17,6.22385763 17,6.5 C17,6.77614237 16.7761424,7 16.5,7 L14.5,7 C14.2238576,7 14,6.77614237 14,6.5 C14,6.22385763 14.2238576,6 14.5,6 Z" id="Rectangle" fill="#CCCCCC" fill-rule="nonzero"></path>
        </g>
    </g>
</svg>