<?xml version="1.0" encoding="UTF-8"?>
<svg width="18px" height="18px" viewBox="0 0 18 18" version="1.1" xmlns="http://www.w3.org/2000/svg" xmlns:xlink="http://www.w3.org/1999/xlink">
    <!-- Generator: Sketch 52.2 (67145) - http://www.bohemiancoding.com/sketch -->
    <title>notice-s</title>
    <desc>Created with Sketch.</desc>
    <g id="Page-1" stroke="none" stroke-width="1" fill="none" fill-rule="evenodd">
        <g id="notice-s">
            <rect id="Rectangle" fill="#D8D8D8" opacity="0.01" x="0" y="0" width="18" height="18"></rect>
            <path d="M2.62892354,10.9772765 C1.14715769,10.7944837 0,9.53120837 0,8 C0,6.34314575 1.34314575,5 3,5 L7.56103896,5 L13.5454545,1 L15,1 C15.5522847,1 16,1.44771525 16,2 L16,6 C17.1045695,6 18,6.8954305 18,8 C18,9.1045695 17.1045695,10 16,10 L16,14 C16,14.5522847 15.5522847,15 15,15 L13.5454545,15 L7.56103896,11 L6.64169925,11 L8.53065846,16.1768905 C8.65986141,16.5309847 8.36569306,16.895278 7.99232981,16.8435479 L3.88227149,16.2740929 C3.66617632,16.2441526 3.49443908,16.0775622 3.45793938,15.8624778 L2.62892354,10.9772765 Z M3.64707646,11 L4.38252858,15.3338517 L7.30637293,15.7389549 L5.57720896,11 L3.64707646,11 Z M16,7 L16,9 C16.5522847,9 17,8.55228475 17,8 C17,7.44771525 16.5522847,7 16,7 Z M15,14 L15,2 L13.8488858,2 L7.86447025,6 L3,6 C1.8954305,6 1,6.8954305 1,8 C1,9.1045695 1.8954305,10 3,10 L7.86447025,10 L13.8488858,14 L15,14 Z M12.5,5 C12.7761424,5 13,5.22385763 13,5.5 L13,10.5 C13,10.7761424 12.7761424,11 12.5,11 C12.2238576,11 12,10.7761424 12,10.5 L12,5.5 C12,5.22385763 12.2238576,5 12.5,5 Z M2.08777867,7.72199183 C2.08777867,7.44584946 2.31163629,7.22199183 2.58777867,7.22199183 C2.86392104,7.22199183 3.08777867,7.44584946 3.08777867,7.72199183 C3.08777867,8.29611483 3.42171056,8.44823917 4.50026905,8.43605994 C4.59088554,8.43503668 4.66845185,8.43339633 4.82687914,8.42948766 C5.06143315,8.42370083 5.15547629,8.42191578 5.278014,8.42191578 C5.55415638,8.42191578 5.778014,8.64577341 5.778014,8.92191578 C5.778014,9.19805816 5.55415638,9.42191578 5.278014,9.42191578 C5.16668968,9.42191578 5.07750481,9.42360861 4.85154328,9.42918346 C4.6887658,9.43319945 4.60802912,9.43490685 4.51156047,9.43599619 C2.9432224,9.45370609 2.08777867,9.06400442 2.08777867,7.72199183 Z" id="Rectangle-4" fill="#29BECE" fill-rule="nonzero"></path>
        </g>
    </g>
</svg>