<?xml version="1.0" encoding="UTF-8"?>
<svg width="18px" height="18px" viewBox="0 0 18 18" version="1.1" xmlns="http://www.w3.org/2000/svg" xmlns:xlink="http://www.w3.org/1999/xlink">
    <!-- Generator: Sketch 52.2 (67145) - http://www.bohemiancoding.com/sketch -->
    <title>offer-s</title>
    <desc>Created with Sketch.</desc>
    <g id="Page-1" stroke="none" stroke-width="1" fill="none" fill-rule="evenodd">
        <g id="offer-s">
            <rect id="Rectangle" fill="#D8D8D8" opacity="0.01" x="0" y="0" width="18" height="18"></rect>
            <path d="M1,1 L17,1 C17.5522847,1 18,1.44771525 18,2 L18,13 C18,13.5522847 17.5522847,14 17,14 L10.1659078,14 L4,17 L4,14 L1,14 C0.44771525,14 -7.10542736e-15,13.5522847 -7.10542736e-15,13 L-7.10542736e-15,2 C-7.10542736e-15,1.44771525 0.44771525,1 1,1 Z M9.93554449,13 L17,13 L17,2 L1,2 L1,13 L5,13 L5,15.4013712 L9.93554449,13 Z M12.5027802,5 L13.3563336,4.14644661 C13.5515957,3.95118446 13.8681782,3.95118446 14.0634404,4.14644661 C14.2587025,4.34170876 14.2587025,4.65829124 14.0634404,4.85355339 L13.3659618,5.55103197 L14.5,5.55103197 C14.7761424,5.55103197 15,5.77488959 15,6.05103197 C15,6.32717434 14.7761424,6.55103197 14.5,6.55103197 L12.9528207,6.55103197 C12.9591292,6.58274853 12.9624376,6.61554607 12.9624376,6.64911632 L12.9624376,7.55103197 L14.5,7.55103197 C14.7761424,7.55103197 15,7.77488959 15,8.05103197 C15,8.32717434 14.7761424,8.55103197 14.5,8.55103197 L12.9624376,8.55103197 L12.9624376,10.6491163 C12.9624376,10.9252587 12.73858,11.1491163 12.4624376,11.1491163 C12.1862952,11.1491163 11.9624376,10.9252587 11.9624376,10.6491163 L11.9624376,8.55103197 L10.5,8.55103197 C10.2238576,8.55103197 10,8.32717434 10,8.05103197 C10,7.77488959 10.2238576,7.55103197 10.5,7.55103197 L11.9624376,7.55103197 L11.9624376,6.64911632 C11.9624376,6.61554607 11.965746,6.58274853 11.9720545,6.55103197 L10.5,6.55103197 C10.2238576,6.55103197 10,6.32717434 10,6.05103197 C10,5.77488959 10.2238576,5.55103197 10.5,5.55103197 L11.6395986,5.55103197 L10.94212,4.85355339 C10.7468579,4.65829124 10.7468579,4.34170876 10.94212,4.14644661 C11.1373822,3.95118446 11.4539646,3.95118446 11.6492268,4.14644661 L12.5027802,5 Z M3.5,5 L5.5,5 C5.77614237,5 6,5.22385763 6,5.5 L6,5.5 C6,5.77614237 5.77614237,6 5.5,6 L3.5,6 C3.22385763,6 3,5.77614237 3,5.5 L3,5.5 C3,5.22385763 3.22385763,5 3.5,5 Z M3.5,8 L7.5,8 C7.77614237,8 8,8.22385763 8,8.5 L8,8.5 C8,8.77614237 7.77614237,9 7.5,9 L3.5,9 C3.22385763,9 3,8.77614237 3,8.5 L3,8.5 C3,8.22385763 3.22385763,8 3.5,8 Z" id="Rectangle" fill="#29BECE" fill-rule="nonzero"></path>
        </g>
    </g>
</svg>