<?xml version="1.0" encoding="UTF-8"?>
<svg width="18px" height="18px" viewBox="0 0 18 18" version="1.1" xmlns="http://www.w3.org/2000/svg" xmlns:xlink="http://www.w3.org/1999/xlink">
    <!-- Generator: Sketch 52.2 (67145) - http://www.bohemiancoding.com/sketch -->
    <title>purchase</title>
    <desc>Created with Sketch.</desc>
    <g id="Page-1" stroke="none" stroke-width="1" fill="none" fill-rule="evenodd">
        <g id="purchase">
            <rect id="Rectangle" fill="#D8D8D8" opacity="0.01" x="0" y="0" width="18" height="18"></rect>
            <path d="M6,2 C6,1.44771525 6.44771525,1 7,1 L11,1 C11.5522847,1 12,1.44771525 12,2 L13.2192236,2 C13.6780912,2 14.0780743,2.31229737 14.1893661,2.75746437 L14.75,5 L16,5 C16.5522847,5 17,5.44771525 17,6 L17,7 C17,7.55228475 16.5522847,8 16,8 L15.9,8 L15.0900496,16.0995037 C15.0389294,16.6107055 14.6087639,17 14.0950124,17 L3.90498756,17 C3.39123611,17 2.96107055,16.6107055 2.90995037,16.0995037 L2.1,8 L2,8 C1.44771525,8 1,7.55228475 1,7 L1,6 C1,5.44771525 1.44771525,5 2,5 L3.25,5 L3.81063391,2.75746437 C3.92192566,2.31229737 4.32190876,2 4.78077641,2 L6,2 Z M6,3 L4.78077641,3 L4.28077641,5 L13.7192236,5 L13.2192236,3 L12,3 C12,3.55228475 11.5522847,4 11,4 L7,4 C6.44771525,4 6,3.55228475 6,3 Z M2,7 L16,7 L16,6 L15,6 L3,6 L2,6 L2,7 Z M3.10498756,8 L3.90498756,16 L14.0950124,16 L14.8950124,8 L3.10498756,8 Z M7,2 L7,3 L11,3 L11,2 L7,2 Z M9,10 C9.27614237,10 9.5,10.2238576 9.5,10.5 L9.5,14.5 C9.5,14.7761424 9.27614237,15 9,15 C8.72385763,15 8.5,14.7761424 8.5,14.5 L8.5,10.5 C8.5,10.2238576 8.72385763,10 9,10 Z M6.34793275,10.0243298 C6.62138773,10.0627614 6.81191183,10.3155954 6.77348024,10.5890504 L6.21678783,14.5501227 C6.17835624,14.8235777 5.92552222,15.0141018 5.65206725,14.9756702 C5.37861227,14.9372386 5.18808817,14.6844046 5.22651976,14.4109496 L5.78321217,10.4498773 C5.82164376,10.1764223 6.07447778,9.98589824 6.34793275,10.0243298 Z M11.6520672,10.0243298 C11.9255222,9.98589824 12.1783562,10.1764223 12.2167878,10.4498773 L12.7734802,14.4109496 C12.8119118,14.6844046 12.6213877,14.9372386 12.3479328,14.9756702 C12.0744778,15.0141018 11.8216438,14.8235777 11.7832122,14.5501227 L11.2265198,10.5890504 C11.1880882,10.3155954 11.3786123,10.0627614 11.6520672,10.0243298 Z" id="Rectangle" fill="#CCCCCC" fill-rule="nonzero"></path>
        </g>
    </g>
</svg>