<?xml version="1.0" encoding="UTF-8"?>
<svg width="18px" height="18px" viewBox="0 0 18 18" version="1.1" xmlns="http://www.w3.org/2000/svg" xmlns:xlink="http://www.w3.org/1999/xlink">
    <!-- Generator: Sketch 52.2 (67145) - http://www.bohemiancoding.com/sketch -->
    <title>quality-business</title>
    <desc>Created with Sketch.</desc>
    <g id="Page-1" stroke="none" stroke-width="1" fill="none" fill-rule="evenodd">
        <g id="quality-business">
            <rect id="Rectangle" fill="#D8D8D8" opacity="0.01" x="0" y="0" width="18" height="18"></rect>
            <path d="M6.08535285,10 C6.29127106,9.41740381 6.84689059,9 7.5,9 C8.15310941,9 8.70872894,9.41740381 8.91464715,10 L12.5,10 C12.7761424,10 13,10.2238576 13,10.5 C13,10.7761424 12.7761424,11 12.5,11 L8.91464715,11 C8.70872894,11.5825962 8.15310941,12 7.5,12 C6.84689059,12 6.29127106,11.5825962 6.08535285,11 L5.5,11 C5.22385763,11 5,10.7761424 5,10.5 C5,10.2238576 5.22385763,10 5.5,10 L6.08535285,10 Z M9.08535285,7 C9.29127106,6.41740381 9.84689059,6 10.5,6 C11.1531094,6 11.7087289,6.41740381 11.9146471,7 L12.5,7 C12.7761424,7 13,7.22385763 13,7.5 C13,7.77614237 12.7761424,8 12.5,8 L11.9146471,8 C11.7087289,8.58259619 11.1531094,9 10.5,9 C9.84689059,9 9.29127106,8.58259619 9.08535285,8 L5.5,8 C5.22385763,8 5,7.77614237 5,7.5 C5,7.22385763 5.22385763,7 5.5,7 L9.08535285,7 Z M9,1 C12.3333333,3.66666667 15,5 17,5 C17,11 13,15.1533369 9,17 C5,15.1233017 1,11 1,5 C3,5 5.66666667,3.66666667 9,1 Z M9,2.27130334 C6.28647812,4.36010265 3.97931616,5.58105366 2.03449669,5.90950033 C2.36917145,10.2954696 5.11035802,13.9067577 9.00312797,15.8885405 C12.8762192,13.9413983 15.629776,10.3061317 15.9654676,5.9094943 C14.0206556,5.5810387 11.7135053,4.36008985 9,2.27130334 Z M10.5,8 C10.7761424,8 11,7.77614237 11,7.5 C11,7.22385763 10.7761424,7 10.5,7 C10.2238576,7 10,7.22385763 10,7.5 C10,7.77614237 10.2238576,8 10.5,8 Z M7.5,11 C7.77614237,11 8,10.7761424 8,10.5 C8,10.2238576 7.77614237,10 7.5,10 C7.22385763,10 7,10.2238576 7,10.5 C7,10.7761424 7.22385763,11 7.5,11 Z" id="Path-22" fill="#CCCCCC" fill-rule="nonzero"></path>
        </g>
    </g>
</svg>