<?xml version="1.0" encoding="UTF-8"?>
<svg width="100px" height="100px" viewBox="0 0 100 100" version="1.1" xmlns="http://www.w3.org/2000/svg" xmlns:xlink="http://www.w3.org/1999/xlink">
    <!-- Generator: Sketch 52.2 (67145) - http://www.bohemiancoding.com/sketch -->
    <title>quality-b</title>
    <desc>Created with Sketch.</desc>
    <g id="Page-1" stroke="none" stroke-width="1" fill="none" fill-rule="evenodd" opacity="0.08">
        <g id="quality-b">
            <polygon id="Path-30" fill="#FFFFFF" points="11.6699565 27.1251149 50.193754 5.42097837 96.3431373 28.5714286 88.4328734 60.0385778 39.7119249 61.5293611 39.7119249 77.0399763 74.9268332 77.0399763 51.6179327 95.771948 24.1957896 78.5714286 6.34702948 48.820577 48.3271809 47.3506606 46.8541101 32.9582544 6.34702948 31.7186038"></polygon>
            <polyline id="Path-29" fill="#9FA8AC" points="4.99618207 32.3252486 48.2343417 32.3252486 48.2343417 48.2475616 8.56788462 48.2475616"></polyline>
            <polyline id="Path-29" fill="#9FA8AC" transform="translate(64.138062, 68.857834) scale(-1, 1) translate(-64.138062, -68.857834) " points="40.7104678 60.8966772 87.5656563 60.8966772 87.5656563 76.8189902 52.2750809 76.8189902"></polyline>
            <polygon id="Path-29" fill="#6D7A80" fill-rule="nonzero" points="44.6629131 35.8966772 4.99618207 35.8966772 4.99618207 28.75382 51.8057703 28.75382 51.8057703 51.8189902 8.56788462 51.8189902 8.56788462 44.676133 44.6629131 44.676133"></polygon>
            <polygon id="Path-29" fill="#6D7A80" fill-rule="nonzero" transform="translate(65.923776, 68.857834) scale(-1, 1) translate(-65.923776, -68.857834) " points="83.9942277 64.4681058 47.8533249 64.4681058 40.7104678 57.3252486 91.1370849 57.3252486 91.1370849 80.3904187 59.4179381 80.3904187 52.2750809 73.2475616 83.9942277 73.2475616"></polygon>
            <path d="M50,9.07127548 C33.5432688,21.667512 19.4452638,29.170494 7.42194972,31.4211212 C9.74726847,57.9882259 26.4068552,79.8785982 50.0220426,92.0514613 C73.5146436,80.0868191 90.2457759,58.0547729 92.5778071,31.4210757 C80.5545461,29.1703928 66.4566203,21.667427 50,9.07127548 Z M50,0 C70.8333333,16.6666667 87.5,25 100,25 C100,62.5 75,88.4583558 50,100 C25,88.2706358 0,62.5 0,25 C12.5,25 29.1666667,16.6666667 50,0 Z" id="Path-22" fill="#6D7A80" fill-rule="nonzero"></path>
        </g>
    </g>
</svg>