<?xml version="1.0" encoding="UTF-8"?>
<svg width="14px" height="14px" viewBox="0 0 14 14" version="1.1" xmlns="http://www.w3.org/2000/svg" xmlns:xlink="http://www.w3.org/1999/xlink">
    <!-- Generator: Sketch 52.2 (67145) - http://www.bohemiancoding.com/sketch -->
    <title>setting-s</title>
    <desc>Created with Sketch.</desc>
    <g id="Page-1" stroke="none" stroke-width="1" fill="none" fill-rule="evenodd">
        <g id="setting-s" fill-rule="nonzero" stroke="#29BECE">
            <path d="M8.98750338,1.07160126 C8.98462293,1.05829173 8.98074401,1.04606125 8.97447485,1.02629418 C8.97060729,1.01517873 8.96967275,1.01249284 8.96970536,1.01259255 C8.9790532,1.03761027 8.98361155,1.04980002 8.98750338,1.07160126 Z M13.5,7.9996408 L13.5,5.99951172 L12.8113945,5.99951172 C11.1610294,5.99951172 10.6496516,4.76524044 11.8152635,3.59846553 L12.3033068,3.11042223 L10.8888438,1.69652481 L10.4015061,2.18386251 C9.23746795,3.34790068 8.00426484,2.84125398 8.00130631,1.2022915 C8.00076968,1.19591503 8.00019922,1.18908348 7.99958633,1.18174372 L7.99958633,0.5 L6.00079603,0.5 L6.00079485,1.19429331 C5.9961108,2.84103136 4.76316572,3.34914925 3.59855731,2.18398108 L3.11085354,1.69653055 L1.69685473,3.11052992 L2.18420878,3.59837503 C3.35077736,4.76434327 2.83901263,5.9995122 1.1898642,5.9995122 L0.5,5.9995122 L0.5,7.99964111 L1.18989062,7.99964111 C2.839088,7.99964111 3.35058822,9.23467404 2.18432622,10.4015343 L1.69698851,10.888872 L3.11079976,12.3032488 L3.59860431,11.8152065 C4.76337864,10.6509938 5.99616165,11.1590389 6.00085042,12.8063099 L6.00085042,13.5 L7.99969417,13.5 L7.99969418,12.8182305 C8.00028768,12.8131127 8.00085917,12.8081848 8.00141,12.8034385 C8.00198341,11.1602204 9.23575275,10.6517582 10.4017919,11.8154413 L10.889059,12.3031993 L12.3033075,10.8889507 L11.8150419,10.401176 C10.649872,9.23383115 11.1609703,7.9996408 12.8113944,7.9996408 L13.5,7.9996408 Z M8.01597615,12.6890571 C8.01894234,12.6727931 8.02164045,12.6665679 8.02657718,12.6551777 C8.02224591,12.6646099 8.01991375,12.6696886 8.01710685,12.6857956 Z M7,9.125 C5.82653193,9.125 4.875,8.17335836 4.875,7 C4.875,5.82664164 5.82653193,4.875 7,4.875 C8.17327757,4.875 9.125,5.82672243 9.125,7 C9.125,8.17327757 8.17327757,9.125 7,9.125 Z" id="Shape"></path>
        </g>
    </g>
</svg>