<?xml version="1.0" encoding="UTF-8"?>
<svg width="18px" height="18px" viewBox="0 0 18 18" version="1.1" xmlns="http://www.w3.org/2000/svg" xmlns:xlink="http://www.w3.org/1999/xlink">
    <!-- Generator: Sketch 52.2 (67145) - http://www.bohemiancoding.com/sketch -->
    <title>store-management-s</title>
    <desc>Created with Sketch.</desc>
    <g id="Page-1" stroke="none" stroke-width="1" fill="none" fill-rule="evenodd">
        <g id="store-management-s">
            <rect id="Rectangle" fill="#D8D8D8" opacity="0.01" x="0" y="0" width="18" height="18"></rect>
            <g id="shop" transform="translate(1.000000, 1.000000)" fill="#29BECE">
                <circle id="Oval" cx="5.45454545" cy="11.2727273" r="1"></circle>
                <path d="M15.6363636,13.8181818 C15.4181818,13.8181818 15.2727273,13.9636364 15.2727273,14.1818182 L15.2727273,15.2727273 L0.727272727,15.2727273 L0.727272727,14.5454545 L1.45454545,14.5454545 L14.5454545,14.5454545 C14.7636364,14.5454545 14.9090909,14.4 14.9090909,14.1818182 L14.9090909,8.36363636 C14.9090909,8.14545455 14.7636364,8 14.5454545,8 C14.3272727,8 14.1818182,8.14545455 14.1818182,8.36363636 L14.1818182,13.8181818 L3.27272727,13.8181818 L3.27272727,8.72727273 L6.18181818,8.72727273 L6.18181818,12.7272727 C6.18181818,12.9454545 6.32727273,13.0909091 6.54545455,13.0909091 C6.76363636,13.0909091 6.90909091,12.9454545 6.90909091,12.7272727 L6.90909091,8.36363636 C6.90909091,8.14545455 6.76363636,8 6.54545455,8 L2.90909091,8 C2.69090909,8 2.54545455,8.14545455 2.54545455,8.36363636 L2.54545455,13.8181818 L1.45454545,13.8181818 L0.363636364,13.8181818 C0.145454545,13.8181818 0,13.9636364 0,14.1818182 L0,15.6363636 C0,15.8545455 0.145454545,16 0.363636364,16 L15.6363636,16 C15.8545455,16 16,15.8545455 16,15.6363636 L16,14.1818182 C16,13.9636364 15.8545455,13.8181818 15.6363636,13.8181818 Z" id="Path"></path>
                <path d="M1.09090909,7.09090909 L1.09090909,12.7272727 C1.09090909,12.9454545 1.23636364,13.0909091 1.45454545,13.0909091 C1.67272727,13.0909091 1.81818182,12.9454545 1.81818182,12.7272727 L1.81818182,7.49090909 C2.03636364,7.6 2.29090909,7.63636364 2.54545455,7.63636364 C3.30909091,7.63636364 3.96363636,7.23636364 4.36363636,6.65454545 C4.76363636,7.23636364 5.41818182,7.63636364 6.18181818,7.63636364 C6.94545455,7.63636364 7.6,7.23636364 8,6.65454545 C8.4,7.23636364 9.05454545,7.63636364 9.81818182,7.63636364 C10.5818182,7.63636364 11.2363636,7.23636364 11.6363636,6.65454545 C12.0363636,7.23636364 12.6909091,7.63636364 13.4545455,7.63636364 C14.6545455,7.63636364 15.6363636,6.65454545 15.6363636,5.45454545 C15.6363636,5.41818182 15.6363636,5.41818182 15.6363636,5.38181818 L14.9090909,2.14545455 L14.9090909,0.363636364 C14.9090909,0.145454545 14.7636364,0 14.5454545,0 L1.45454545,0 C1.23636364,0 1.09090909,0.145454545 1.09090909,0.363636364 L1.09090909,2.50909091 L0.363636364,5.38181818 C0.363636364,5.41818182 0.363636364,5.45454545 0.363636364,5.45454545 C0.363636364,6.10909091 0.654545455,6.69090909 1.09090909,7.09090909 Z M13.4545455,6.90909091 C12.6545455,6.90909091 12,6.25454545 12,5.45454545 C12,5.23636364 11.8545455,5.09090909 11.6363636,5.09090909 L9.45454545,5.09090909 C9.23636364,5.09090909 9.09090909,5.23636364 9.09090909,5.45454545 C9.09090909,5.67272727 9.23636364,5.81818182 9.45454545,5.81818182 L11.2363636,5.81818182 C11.0909091,6.43636364 10.5090909,6.90909091 9.81818182,6.90909091 C9.01818182,6.90909091 8.36363636,6.25454545 8.36363636,5.45454545 C8.36363636,5.23636364 8.21818182,5.09090909 8,5.09090909 L5.81818182,5.09090909 C5.6,5.09090909 5.45454545,5.23636364 5.45454545,5.45454545 C5.45454545,5.67272727 5.6,5.81818182 5.81818182,5.81818182 L7.6,5.81818182 C7.45454545,6.43636364 6.87272727,6.90909091 6.18181818,6.90909091 C5.38181818,6.90909091 4.72727273,6.25454545 4.72727273,5.45454545 C4.72727273,5.23636364 4.58181818,5.09090909 4.36363636,5.09090909 L2.18181818,5.09090909 C1.96363636,5.09090909 1.81818182,5.23636364 1.81818182,5.45454545 C1.81818182,5.67272727 1.96363636,5.81818182 2.18181818,5.81818182 L3.96363636,5.81818182 C3.81818182,6.43636364 3.23636364,6.90909091 2.54545455,6.90909091 C1.74545455,6.90909091 1.12727273,6.29090909 1.09090909,5.49090909 L1.74545455,2.90909091 L4,2.90909091 L4,4 C4,4.21818182 4.14545455,4.36363636 4.36363636,4.36363636 C4.58181818,4.36363636 4.72727273,4.21818182 4.72727273,4 L4.72727273,2.90909091 L7.63636364,2.90909091 L7.63636364,4 C7.63636364,4.21818182 7.78181818,4.36363636 8,4.36363636 C8.21818182,4.36363636 8.36363636,4.21818182 8.36363636,4 L8.36363636,2.90909091 L11.2727273,2.90909091 L11.2727273,4 C11.2727273,4.21818182 11.4181818,4.36363636 11.6363636,4.36363636 C11.8545455,4.36363636 12,4.21818182 12,4 L12,2.90909091 L14.3272727,2.90909091 L14.8,5.09090909 L13.0909091,5.09090909 C12.8727273,5.09090909 12.7272727,5.23636364 12.7272727,5.45454545 C12.7272727,5.67272727 12.8727273,5.81818182 13.0909091,5.81818182 L14.8727273,5.81818182 C14.6909091,6.43636364 14.1454545,6.90909091 13.4545455,6.90909091 Z M1.81818182,0.727272727 L14.1818182,0.727272727 L14.1818182,2.18181818 L1.81818182,2.18181818 L1.81818182,0.727272727 Z" id="Shape" fill-rule="nonzero"></path>
                <path d="M8,8 C7.78181818,8 7.63636364,8.14545455 7.63636364,8.36363636 L7.63636364,12.7272727 C7.63636364,12.9454545 7.78181818,13.0909091 8,13.0909091 L13.0909091,13.0909091 C13.3090909,13.0909091 13.4545455,12.9454545 13.4545455,12.7272727 L13.4545455,8.36363636 C13.4545455,8.14545455 13.3090909,8 13.0909091,8 L8,8 Z M12.7272727,12.3636364 L8.36363636,12.3636364 L8.36363636,8.72727273 L12.7272727,8.72727273 L12.7272727,12.3636364 Z" id="Shape" fill-rule="nonzero"></path>
            </g>
        </g>
    </g>
</svg>