<?xml version="1.0" encoding="UTF-8"?>
<svg width="18px" height="18px" viewBox="0 0 18 18" version="1.1" xmlns="http://www.w3.org/2000/svg" xmlns:xlink="http://www.w3.org/1999/xlink">
    <!-- Generator: Sketch 52.2 (67145) - http://www.bohemiancoding.com/sketch -->
    <title>workflow</title>
    <desc>Created with Sketch.</desc>
    <g id="Page-1" stroke="none" stroke-width="1" fill="none" fill-rule="evenodd">
        <g id="workflow">
            <rect id="Rectangle" fill="#D8D8D8" opacity="0.01" x="0" y="0" width="18" height="18"></rect>
            <path d="M14,11.3224323 L14,5 L4,5 L4,15 L10.7657297,15 L13.9764166,12.3224323 L11.1075142,12.3224323 L11.1075142,13.5799972 C11.1075142,13.8561396 10.8836566,14.0799972 10.6075142,14.0799972 C10.3313719,14.0799972 10.1075142,13.8561396 10.1075142,13.5799972 L10.1075142,11.8224323 C10.1075142,11.5462899 10.3313719,11.3224323 10.6075142,11.3224323 L14,11.3224323 Z M5,1 L5,2 L2,2 L2,17 L16,17 L16,2 L13,2 L13,1 L16,1 C16.5522847,1 17,1.44771525 17,2 L17,17 C17,17.5522847 16.5522847,18 16,18 L2,18 C1.44771525,18 1,17.5522847 1,17 L1,2 C1,1.44771525 1.44771525,1 2,1 L5,1 Z M7,1 L7,2 L11,2 L11,1 L7,1 Z M7,0 L11,0 C11.5522847,0 12,0.44771525 12,1 L12,2 C12,2.55228475 11.5522847,3 11,3 L7,3 C6.44771525,3 6,2.55228475 6,2 L6,1 C6,0.44771525 6.44771525,0 7,0 Z M4,4 L14,4 C14.5522847,4 15,4.44771525 15,5 L15,12.7709162 L11.127987,16 L4,16 C3.44771525,16 3,15.5522847 3,15 L3,5 C3,4.44771525 3.44771525,4 4,4 Z M6.5,7 L11.5,7 C11.7761424,7 12,7.22385763 12,7.5 C12,7.77614237 11.7761424,8 11.5,8 L6.5,8 C6.22385763,8 6,7.77614237 6,7.5 C6,7.22385763 6.22385763,7 6.5,7 Z M6.5,10 L8.5,10 C8.77614237,10 9,10.2238576 9,10.5 C9,10.7761424 8.77614237,11 8.5,11 L6.5,11 C6.22385763,11 6,10.7761424 6,10.5 C6,10.2238576 6.22385763,10 6.5,10 Z" id="Rectangle" fill="#CCCCCC" fill-rule="nonzero"></path>
        </g>
    </g>
</svg>