<?xml version="1.0" encoding="UTF-8"?>
<svg width="14px" height="14px" viewBox="0 0 14 14" version="1.1" xmlns="http://www.w3.org/2000/svg" xmlns:xlink="http://www.w3.org/1999/xlink">
    <!-- Generator: Sketch 52.2 (67145) - http://www.bohemiancoding.com/sketch -->
    <title>work</title>
    <desc>Created with Sketch.</desc>
    <g id="Page-1" stroke="none" stroke-width="1" fill="none" fill-rule="evenodd">
        <g id="工作台-蓝绿色" transform="translate(-247.000000, -21.000000)">
            <g id="Group-7">
                <g id="页签-工作台" transform="translate(235.000000, 9.000000)">
                    <g id="work" transform="translate(12.000000, 12.000000)">
                        <rect id="Rectangle" fill="#D8D8D8" opacity="0.01" x="0" y="0" width="14" height="14"></rect>
                        <g id="Group-44" transform="translate(1.000000, 1.000000)" fill="#1E3255" fill-rule="nonzero">
                            <path d="M1,0 L11,0 C11.5522847,-1.01453063e-16 12,0.44771525 12,1 L12,9 C12,9.55228475 11.5522847,10 11,10 L1,10 C0.44771525,10 6.76353751e-17,9.55228475 0,9 L0,1 C-6.76353751e-17,0.44771525 0.44771525,1.01453063e-16 1,0 Z M1,1 L1,9 L11,9 L11,1 L1,1 Z M2,2 L5,2 L5,8 L2,8 L2,2 Z M6,2 L10,2 L10,3 L6,3 L6,2 Z M6,4 L10,4 L10,5 L6,5 L6,4 Z M6,6 L10,6 L10,8 L6,8 L6,6 Z M1.5,11 L10.5,11 C10.7761424,11 11,11.2238576 11,11.5 C11,11.7761424 10.7761424,12 10.5,12 L1.5,12 C1.22385763,12 1,11.7761424 1,11.5 C1,11.2238576 1.22385763,11 1.5,11 Z" id="Rectangle"></path>
                        </g>
                    </g>
                </g>
            </g>
        </g>
    </g>
</svg>